<?xml version="1.0" encoding="utf-8"?>
<!-- Generator: Adobe Illustrator 28.0.0, SVG Export Plug-In . SVG Version: 6.00 Build 0)  -->
<svg version="1.1" id="Layer_1" xmlns="http://www.w3.org/2000/svg" xmlns:xlink="http://www.w3.org/1999/xlink" x="0px" y="0px"
	 viewBox="0 0 6318 5243" style="enable-background:new 0 0 6318 5243;" xml:space="preserve">
<style type="text/css">
	.st0{fill:#00B3B3;stroke:#008080;stroke-width:105;stroke-miterlimit:10;}
	.st1{font-family:'Arial-BoldMT';}
	.st2{font-size:546px;}
	.st3{font-family:'ArialMT';}
	.st4{font-size:241px;}
</style>
<polygon class="st0" points="5345.6,3895.1 5345.6,1358.7 3162.9,90.4 980.2,1358.7 980.2,3895.1 3162.9,5163.3 "/>
<g transform="translate(0.000000,5243.000000) scale(0.100000,-0.100000)">
	<path d="M20357.9,30167.5c-805-152.1-1552.2-416-2261.1-799.4c-393.7-212.8-809.4-488.7-1160.6-772
		c-766.4-616.3-1408.2-1379.6-1887.3-2243.7c-467.8-842.7-779.7-1796.8-901.6-2749.6c-109.5-860.5-71.1-1735.8,113.2-2581.3
		c196.2-901.8,553-1762.9,1052.4-2536.1c297-459.8,478-703.2,655.5-876.9c82.1-80.6,127.8-100.2,210.1-89.4
		c40.1,5.6,53.1,10.1,88.6,34.1c25.6,17.2,47.7,39.3,58.2,57.2c29.8,50.5,405.2,1042.6,408.8,1080.6c10.1,98.9-50.3,190-145.3,221.8
		c-33.6,11-49.4,12.2-90.9,6.5c-64.9-9-108.8-36.2-143.8-88.8c-14.6-22.5-71.8-160.6-146.7-357.1
		c-66.8-176.3-124.2-322.6-126.5-325.7c-1.6-3-29.2,28.7-60.8,69.9s-63.2,81.9-69.8,90.5c-11,15.5,0.5,50.5,328.9,969.3
		c187.5,525,343.8,964.6,346.7,977.9c3.6,13.4,2.7,44.7-0.8,69.4c-12.6,80.7-65,144.3-140,168.7c-35,11.5-48.7,12.3-97.6,5.5
		c-50.8-7.1-60.6-10.5-90.2-33c-17.9-13.4-42.4-38.6-53.6-55.8c-12.3-19.4-129.6-337.7-309.7-841.9
		c-159.6-446.2-291.9-808.8-294.8-807.1c-7.7,6.4-116.7,187.6-186.1,309.5c-338.6,597.1-597.3,1257.1-753.7,1926.6
		c-53.9,231.1-75.3,350.8-117.6,655.1c-43.4,307.5-52.9,405.1-64.3,659.1c-64.9,1409.5,288.9,2812.4,1019.4,4040.6
		c259.8,436.2,590.8,874.8,944.5,1248.4c347,367.9,712.4,681.1,1132.7,972.6c266.2,184.2,474.7,312,741.5,452.7
		c758.8,401.3,1547.5,656,2394.2,773.6c333,46.3,641.3,69.3,924.1,70.4c567.7,1.2,1037.1-46.1,1567.2-157.9
		c108.2-23.1,385.3-89.6,392.2-94.8c1.4-0.5-1092.6-2866.1-2430.9-6367.5c-1337.7-3501.4-2433-6371.9-2432.9-6378
		c-0.5-6.2-93.6-253.6-206.6-548.8c-113-295.8-205.8-540.5-206-543.9c-0.9-13.1,350.2-170.8,596.2-268.2
		c119-46.9,511.6-183.9,522.9-182.3c6,0.8,108.9,266,157.5,407c33.4,98,5135.4,13450,5142.9,13459.9
		c3.5,4.6,265.4-119.2,318.2-151.4l22.3-13.3l-10.4-32.8c-5.7-17.8-146.5-387.8-312.4-822.5c-166.6-434.9-308.8-809.7-317.1-833.4
		c-48.3-143-32.8-284,42.6-390.1c37.3-52.8,74.7-86.4,138.6-124.6c29.6-17,98.2-64.1,152.1-103.6c54.6-39.5,158.8-108.1,232.4-151.8
		c144.1-85.6,212.3-134.8,334.6-239.8c187.5-162.1,294.1-276.8,618.1-670.8c90.2-109.5,204.5-245.6,254.8-303.4l90.8-103.9
		l58.6-19.8c140.1-46.7,262.3-14,346.4,92.4c40.7,50.6,65,101.1,103,215.4c15.5,45.1,142.1,395.3,281,779.3
		c139,383.3,259.6,721.8,267.1,751.5l14.3,53.8l33.1-41.8c77.1-99,164.7-219.1,264.8-365.4l107.7-156.8l-30.6-44.5
		c-17.1-24.2-37.1-61.7-45-83.3c-8-20.9-156.5-409.6-329.3-863c-173.5-453.5-320.3-844.7-327.6-870.3
		c-41.8-155.1-21.7-290.7,55.8-371.9c15.1-15.6,41.3-46.8,58.6-68.2c16.6-21.5,60.6-67.9,96.7-102.4c36.8-34.4,69.5-68.7,73.9-75.6
		c3.7-7,20.8-36.7,38.5-66.2c52.7-90.1,92.8-197.1,173.9-466.6c24.9-81.1,63.5-201.8,86.4-268.8l42-120.9l72.5-26.1
		c68.2-24.6,75.8-25.6,129.7-20.8c46.4,4.4,64.2,8.9,94,25.3c78.6,43,121.9,109,186.3,282.9c132.3,357.8,471.9,1264.6,475.2,1269.8
		c5.7,8.3,11.7-10.6,52.9-165.1c38.8-141.8,73.4-287.7,110-458.5c27.9-127,119.9-789.7,121.7-871.3l1.5-50.2l-67-37.9
		c-595.4-341.1-1307.2-1473.3-1783.5-2838.7c-396.4-1135.5-530.5-2186.8-349.3-2730.8c8.5-26.8,18.9-57.4,22.5-68.5
		c8-23.4,12.2-18.8-223.2-228.7c-254.8-226.9-472-395.5-766.1-594.5c-707.3-477.9-1484.1-823.1-2317.7-1029.5
		c-156.2-38.7-332.8-77.6-337.4-73.5c-2.3,1.7,149.1,379.3,336.1,838.8c239.3,588.8,341.3,845.6,343.3,870.4
		c9.7,96.8-55.7,189.9-152.5,219.4c-24.9,7.4-46.1,7.9-89.6,1.9c-50.8-7.1-60.6-10.5-90.2-33c-17.9-13.4-40.5-37-50.7-52
		c-9.5-15-190.6-453.2-402.5-974.1l-385.9-946.6l-40.2-9.7c-118.1-28-176.8-37.5-178-28.8c-0.7,5.3,56,161.1,125.6,347.4
		c87.3,235,127.3,349.6,129.2,375.1c6.5,95.6-54.5,181.2-152.2,212.7c-51.4,16.7-128.1,4.7-175.5-27.1c-19.9-13.7-43.9-37.5-54-53.2
		c-18.6-27.8-373.1-964.6-390.2-1028.3c-5.2-21.2-6.1-49.2-2.6-79.4c5.5-39.5,10.1-53.1,31.4-83.6c26.5-38.6,65.4-68.6,108.3-83.1
		c103.8-36,476.2-12.9,687.9,43.1c43.4,11.5,80.9,21.5,83.5,21.8c2.7,0.4,3.9-3.5,2.6-9.2c-5.4-24.6,573.2,88.5,896.6,175
		c843.8,226.3,1663.2,603.9,2379.2,1097.4l67.2,46.1l39.9-36.7c21.2-20.2,84.8-70.7,140.9-111.3c215.8-159.5,444-256.7,708.8-303.7
		c279.5-49.1,567.4-26.2,841.5,66.5c413.3,140.6,766.5,449.3,962.8,842c45.4,90.2,51.9,107.4,339.3,859.7
		c231.7,608.9,243.9,638.5,259,633.1c53.8-19.1,11361.4-4340.4,11366.6-4343.7c3-2.3,6.9-69.3,8.5-149.5
		c7.8-453.6,82.7-860.3,233.9-1271.5c247-669.1,670-1251.1,1229.8-1688.7c579-453.3,1286.4-732,2022.7-796.7
		c478.9-41.9,974,10.6,1437.6,152c838.9,256.3,1565.4,792.1,2049.1,1510.9c608.6,903.9,803.2,2000.4,543.2,3057.7
		c-130.1,529.3-394.7,1060.3-739.2,1484.2c-353.3,433.5-795.4,784.5-1292.5,1026.3c-984.6,478.1-2118.8,512-3128.3,95
		c-513.1-212.4-977.2-536.6-1355.1-946.9l-51.6-55.6l-5703.5,2179.6c-3333,1273.8-5704,2183.6-5703.3,2188.5
		c0.7,4.9,114.9,306.3,253.8,670.6c138.9,364.2,260.8,688.6,270.6,721.3c188.7,624-2.8,1310.4-487.4,1746.8
		c-321.1,290.1-757.2,450.4-1186.7,436.4c-15.7-0.1-18.1,2.9-28.2,45.8c-138.1,562.3-297.2,1015.9-535,1520.7
		c-244.8,520.8-581.2,1058.3-954.7,1523.8c-254.8,317.7-562,640.4-863.9,909.3c-307.3,273.6-719.4,581-1058,790.3
		c-733.7,452.9-1536.4,779.7-2378.6,968.8c-718.4,161.3-1427.8,214-2199.4,164.8C21036.3,30264.4,20526.6,30199.1,20357.9,30167.5z
		 M24334.6,29387.3c25.9-10,47.7-19.3,49.2-20.4c2.2-1.1-5131.3-13440.5-5152-13487.7l-8.3-18.9l-90,34.5
		c-124.7,48.8-237.7,96.5-242.5,102c-2.5,3.1,1155.6,3040.5,2573.3,6750.6l2578.1,6745.8l122.6-43.6
		C24232.5,29425.6,24308.6,29397.3,24334.6,29387.3z M25535.2,28585.5c436.2-210.7,795.1-532.3,1325.3-1188.7
		c56-69.2,110.4-132.6,120.5-141.4l20-16.3l-6.5-36.4c-7.9-46.1-514-1442.2-523.4-1443.5c-3.3-0.5-83.8,92.7-177.3,206.4
		c-322.2,390.8-448.4,523.9-703.4,740.7c-88.1,75-175.5,135.1-336.2,231.4c-122.6,72.9-190.5,120.1-271.5,187.9
		c-19.3,16.4-50.8,36.6-71,44.7c-23.3,10.4-36.1,19.5-35.8,27.1c-0.2,6.1,114.8,311.8,255.3,679.6
		c312.4,817.8,289.4,758,294.1,758.6C25428,28636,25477.5,28613.6,25535.2,28585.5z M28086.1,25875.9
		c16.8-37.2,52.7-124.2,79.4-193.5c99.1-256.8,132-332,190.5-439.1l33.9-62.8l-11.7-43.2c-20-71.6-455.9-1232.4-461.7-1229.8
		c-3,1.6-6.7,9.3-7.9,17.3c-5.1,36.8-87,223.8-132.7,302.6c-63.7,110.4-93.7,149.2-172,222.2c-48.6,45.7-67.4,68.3-82.1,100.4
		c-10.6,22.4-20.1,46.3-21.1,53.6c-1.4,10,440.5,1181.1,512.2,1357.4l13.3,31.8l14.3-24.6
		C28048.5,25955.2,28069.3,25913.7,28086.1,25875.9z M29402,23921c336.5-32.3,653.3-207.8,869-479.8
		c109.2-138.2,185-296,241.6-502.9c26.5-97.2,36.8-294.1,22.3-420.9c-9.1-76.9-33.5-186-57.6-257.5
		c-29.1-85.2-1933.9-5072.9-1970.4-5158.4c-155.5-367.2-472.3-633.4-873.9-735.6c-272.6-69.2-580.8-34.3-851.8,96.4
		c-124.2,59.8-292.6,178.2-269.7,189.5c3.8,1.9,50.5,39,103.6,83.2c868.7,719.2,1552.6,1596,2033.7,2607.6
		c548.2,1151.8,800.2,2404.9,738.8,3671c-10.9,230.9-24.2,370.2-61.7,640.4l-37.5,274.9l20.5-0.6
		C29320.4,23928.8,29361.9,23925,29402,23921z M28974.3,22661.9c-0.1-14.3-0.8-77.8-2.1-142.1c-7.6-632.3-109.6-1296.7-295.5-1925.8
		c-38.5-130.1-143.5-439.1-190.6-561.6c-166.6-430.1-377.4-850.6-625.5-1247.7c-187.3-300-468-674.4-708.4-945.7
		c-51.9-58.3-56.2-61.7-45.1-28.8c7.2,22.1,7.5,48.8,0.1,122c-65.4,701.2,220.4,1902.4,712.4,2992.5
		c333.1,737.5,732.7,1354.7,1079.8,1668c38.1,34.6,60.5,60.2,64.2,73C28970.5,22694.1,28974.9,22692,28974.3,22661.9z
		 M35865.4,18213.8c3098.2-1183.7,5635-2153,5636.5-2154.2c1.4-0.5-17.4-31.7-42.4-67.9c-299.3-445.8-516.4-1013.1-594.4-1555.6
		c-1-7.6-6.5-7-24.6,0.7c-13.1,5.7-2545.5,973.5-5627.9,2150.6c-3082.4,1177.7-5608.5,2143.7-5613.8,2147.8
		c-7.5,5.1,51.7,167.4,301.7,821c225.9,591.7,314.2,814.6,321.3,812.8C30227.5,20367.8,32767.1,19398.2,35865.4,18213.8z
		 M44378.4,17267.7c595,44.5,1168.8-61.9,1717.7-319c341.9-159.7,682.8-400.7,949.3-670.4c655.7-662.1,1009.8-1557.7,985.4-2490.8
		c-18.1-669.8-243.3-1335.1-638.9-1882.8c-231.6-319.8-475.5-561.6-795.7-788.1c-740.6-522.8-1654.2-727.4-2543.8-570.1
		c-355,63.1-701.7,183.4-1025.7,357.1c-268,143.4-572.3,371.1-795.7,595.6c-372.2,373-659.2,849.1-823.5,1364.8
		c-94.3,296.4-155.2,670.3-158.2,976.6c-9.3,861.7,304.4,1689.8,882.5,2327.7c461,508.5,1094.2,877.3,1759.4,1024.9
		c47.7,10,97.9,21.8,112.5,24.5C44067.1,17231.9,44279.2,17260,44378.4,17267.7z"/>
	<path d="M44228.1,16067.5c-456.6-94.1-864.7-321.2-1186.3-660.4c-88-92.7-232.9-285.9-292.7-390.4
		c-250.1-436.9-348.3-892.9-295.2-1373.6c18.4-167.2,42.2-279.1,89.8-430.6c210.8-673.5,736.1-1211.3,1402.2-1437.7
		c472.2-160.7,976.6-160.2,1447.7,0.7c542,185.7,996.3,580.8,1259,1094.4c143.1,280.3,229.1,603,241.9,912.9
		c10.3,240-21,494.7-88.8,727.3c-154.2,530.7-519.8,1003.4-992.3,1284.1c-406.3,240.8-852.3,345.1-1324.5,309.5
		C44368.2,16094.5,44343.5,16091.1,44228.1,16067.5z M44659.1,15688.4c420.4-3.6,808.5-137.8,1129.4-391.8
		c235-185.5,422.8-433.4,544-716.5c53.3-123.5,87.3-245.5,112.2-400.2c27.1-166,32.4-257.9,23.8-407
		c-11.6-201.3-72-448.3-153.9-629.4c-75-166.5-217.3-379.2-335.2-501.9c-375.9-390.3-891.6-593.5-1425.8-560.7
		c-330.7,20.2-670,142.1-941.3,338.2c-325.2,235.7-558.2,563.9-676.4,953.7c-28.5,92.2-68.4,340.2-72,444.7
		c-24.1,659.2,323.5,1292.4,891.2,1622.1c160.3,92.5,332.7,161.4,508.3,202.8C44351.1,15663.4,44573.8,15688.9,44659.1,15688.4z"/>
	<path d="M18399.7,28340.6c-850.9-189.8-1546.9-754.1-1900.5-1540.1c-56.2-125.1-132.3-348.3-163-475.3
		c-116.4-492-97.8-983.6,56.2-1469.3c49.2-153.3,149.8-381.4,229.3-516.9c344.1-588.2,858.3-1006.8,1498-1219.9
		c627.6-209.3,1295.9-181.9,1913.4,78.4c602,254,1112.7,744.2,1387.9,1333.9c183.8,394.3,267.8,795.2,260.4,1246.1
		c-1.2,96.6-53.6,469-78.5,565.1c-172.4,652.2-536.2,1185.9-1065.2,1558.9c-236.4,166.2-461.3,278.1-741.1,368.7
		c-295.3,94.6-583.4,136.4-900.8,129.8C18785.1,28397.5,18504.8,28364.1,18399.7,28340.6z M18700,27945.4
		c8.7-57.4,70.7-1117.6,65.9-1121.7c-3.1-2.5-33.3-10.8-66.4-17.4c-113.9-24-232.4-73.9-351-147.6l-64.6-40.3l-18.8,17.8
		c-10.2,9.5-199.1,182.3-420.7,383.9c-397.3,362.7-401.3,366.9-389.6,380.8c23,25.7,144.7,121,226.3,176.6
		c245.9,167.8,514.8,283.5,813.7,349.6c14.5,3.4,66.5,12,115.2,19.4C18697.3,27960,18698,27960.1,18700,27945.4z M19217.5,27964.1
		c324.6-35.3,649.3-145,934.8-315.9c82.5-49.2,219.1-144.1,217.3-151.1c-0.9-3.5-144.3-158.4-318.8-344.9
		c-174.5-186.5-350.2-373.8-390-416.1l-72.4-77.5l-57.6,31.5c-147,81.8-328.5,137-479,146.1c-20.6,1.2-44,2.7-51.6,3.7
		c-14.4,0.7,42.1,5.9,136.1,11.4c54.7,3.5,55.4,3.6,56.6,19.5c0.8,9-14.4,250.9-33,536.6c-34.4,522.1-36.8,564.1-30.1,565
		C19131.8,27972.6,19171.9,27968.7,19217.5,27964.1z M17571.6,26695.9c220.3-201.8,406.1-371.7,412.3-376.9
		c10.8-9.4,9.5-14.4-13.1-52.9c-57.2-98.6-103.2-218.8-129.7-337l-15.5-70.3l-32.4-2.5c-108.7-7.6-1101.1-56.9-1103.5-54.5
		c-2.2,1.1-1,31.9,1.6,67c32.8,411.5,181.3,819.3,418.9,1150.2c34.4,47,44.5,57.3,51.5,51.5
		C17167.1,27066.5,17351.4,26897.8,17571.6,26695.9z M20744.4,27134.7c251.1-310.7,407-657.8,483.2-1073.9
		c13.3-71.1,13.6-78.5,2.9-80c-11.4-1.6-1094.2-57.9-1121.4-58.3c-11.6-0.2-16.2,8.7-34.9,74.9c-34.4,120-71,202.1-135,304.3
		c-21.1,33.9-38.2,64.2-37.4,67.7c2,10.5,778.2,836.1,784,833.5C20688.8,27201.2,20714.9,27170.8,20744.4,27134.7z M19046.1,26410.7
		c82.4-9,205.8-48.4,274.6-87.3c229.1-128.4,375.8-379.3,372.1-637.4c-4.7-344.2-234.2-630.3-566.6-705.8
		c-472.4-107.9-915.4,269.5-884.8,755.7c18,297.6,214.3,547.8,506.5,647C18822.3,26407.5,18960.2,26420.6,19046.1,26410.7z
		 M17289.4,25405.9c301.9,15.4,549.7,27.3,551.1,26.8c0.9-1.2,10.3-29.9,20.5-64c31-105.4,78.2-209.3,133.3-297.1
		c14.9-23.8,26.6-44,26.1-45.5c-24.3-31.3-775.5-825.5-780.4-824.8c-10.5,1.9-78.3,88-144,182.4
		c-187.3,269.1-311.9,566.7-374.4,894.1l-17.9,94.3l18.1,2.5C16731.8,25376.2,16986.9,25389.8,17289.4,25405.9z M20686.8,25528.2
		c308,15.5,562,27,564.3,25.2c6.9-5.2-11.2-169.9-29.2-265.8c-64.1-343.6-194.8-653.5-394.5-933.4l-42.2-59l-413,377.5
		c-227.3,208.4-417.8,382.3-424,387.6c-9.3,8.2-7,16.1,18.9,60.6c54.3,94.8,100.4,214.4,120.9,312c13,63.2,13.6,63.9,27.7,65.9
		C20121.7,25498.8,20378.8,25512.7,20686.8,25528.2z M18502,24635.8c53.8-23.9,166.6-60.7,224.9-73.1c13.4-2.9,26.9-7.2,30.6-9.4
		c4.5-2.8,76.4-1069.8,75.2-1125.2l0.3-21.8l-71.1,6.5c-399.1,36.6-806.1,189.3-1126.9,422.8c-46.3,33.8-83.2,64.1-82.9,66.9
		c1,2.9,174.6,190.6,386.5,417l385.2,411.4l60-34.6C18417.2,24677.1,18470.1,24649.7,18502,24635.8z M20072.3,24372.7
		c406.8-372.2,419.4-384.1,409-397.8c-17.5-21.5-120.8-102-211.6-165c-275.3-191.6-629.2-333.5-937.5-376.3
		c-67.5-9.4-72.3-9.4-74.1,3.3c-1,7.4-17,254.6-35.6,550.6c-18.6,296-34.8,544.6-35.9,552.6c-2,14.7,1.8,16.6,65.5,33.6
		c126.2,33.9,234.7,81.7,339.7,150.1c28.8,18.3,54,33.4,56.1,33C19650.8,24756.5,19841.2,24583.2,20072.3,24372.7z"/>
	<path d="M24127.3,26188.8c-63.9-30.7-116.6-83-147.8-148c-21-45.2-435.8-1151.2-459.5-1226c-57.9-181.9,18.5-388,193.1-521.2
		c35.8-27.1,81.6-57.5,102.1-67.6c20.5-10.1,582.8-431.6,1248.7-936.9c1133-859.6,1216.3-924.4,1293.4-1003
		c143-146.4,241.2-205.1,343.8-207.9c83.4-1.4,171.2,43.5,216.9,111.9c23.7,35.3,384,901.3,417.3,1004.8
		c41.7,126.4,41.2,242.9-1.2,361.8c-59.2,166.3-178.8,320.1-450.5,578.2c-84.8,80.2-288.1,277.6-452.1,438.2
		c-755.8,740.2-960,924.5-1359.1,1225.6c-305.3,230.2-394.3,286.7-546.5,347.4c-154.4,61-229.4,76.5-312.3,64.3
		C24180.9,26205.2,24142,26195.7,24127.3,26188.8z M24497.9,25689.6c199.8-123.6,494.6-351.2,771.3-596.3
		c202.8-179,381-347.9,851.3-808.8c171.1-167.1,379.3-369.9,464-450.2c249.1-237.4,343.4-357.2,357.1-455.5
		c4.7-34.1,8.1-24.1-186.5-497.6c-61.7-149.7-113.4-272.7-115.4-273c-2.7-0.4-21.5,17.5-43.1,40.4
		c-48.6,50.5-2530.9,1927.8-2582.1,1952.8c-38.7,18.5-75.3,51.6-85.8,78.1c-5.1,12.2,34.5,124.8,191.6,544
		c108.9,290.5,200,532.9,202.7,538C24329.1,25775.9,24415.9,25740.2,24497.9,25689.6z"/>
	<path d="M16440.9,23103.4c-38.9-19-83.1-59.3-108.7-101c-25.1-40.3-388.7-921.1-413-1001.5c-46.8-153.7-36.2-279.1,36.6-425.7
		c72.3-147.4,186.2-285.6,409.8-496.6c77.7-73.7,269-258.5,424.6-411.4c644-631.7,906.9-875.4,1213.3-1123.2
		c139-112.3,366.7-279.7,497.1-364.5c92.3-60.8,126.8-78.5,229.3-119.5c134.2-53.6,197.1-69.4,270.8-70.1
		c112-1.5,215.9,60,269,158.7c28.7,53.7,467.8,1229.9,479.9,1285.4c9.6,43.6,9.5,59.3-2.3,139.4c-11.1,79.6-15.4,96-38,141.3
		c-50.2,101.4-146.3,199.2-251.5,254.8c-24.4,13.7-588.9,436.2-1254.6,940.2c-1154.6,873-1215,919.8-1296,1002.6
		c-112.8,115.2-191.9,174.4-264.8,198.4c-49.4,17-61.8,18-113.6,12.8C16490.4,23119.8,16460.1,23112.8,16440.9,23103.4z
		 M16662.7,22556.8c23.8-24,599.1-465.5,1278.7-981.2c934.1-708.6,1248.2-943.1,1287.7-962.2c54.8-26.5,96.6-67,100.7-97.1
		c1.7-17.5-390.3-1071.9-401.1-1077.5c-3.2-1.1-33.3,9-66.6,22.8c-146.8,60.7-527.7,344.5-870.4,647.3
		c-210.6,186.1-429.7,394.3-918.2,873.8c-134.1,131.3-312.2,304.3-395.5,384c-213.6,202.8-288.3,289.2-338.6,391.3
		c-29.4,59.3-32.3,75.3-19.2,113.9c10.5,32.1,295,727.4,297,727.7C16618.6,22599.8,16638.4,22580,16662.7,22556.8z"/>
	<path d="M22620.3,22517.4c-113.2-38.9-218-133.2-273.8-246.6c-21.2-43.8-400.7-1035.9-416.3-1090.5
		c-54.4-182.7,12.2-386.8,165.3-508c58.9-46.3,127.4-77.7,299.1-136.4c372.8-126.8,616.5-183.6,1458.1-339.3
		c263.7-48.6,512.5-97.2,553.3-106.5c40.9-10,98.8-19.7,128.4-21.7c180-10.4,351,98.5,440.9,280.7c62.7,128,348.2,776.4,361.7,821.2
		c8.2,29.1,17.9,72,20.8,95.6c5.8,51.3-6.1,147.1-24.4,195c-35.5,93.9-125.1,184.4-224.6,228.5
		c-71.9,31.6-2111.9,810.9-2182.5,833.1c-31.5,10.6-78.5,20.4-105.3,22.2C22764.6,22548.4,22674.9,22536.6,22620.3,22517.4z
		 M23865.7,21712.9c840.7-320.8,1067.2-410,1066.4-419c-3.2-26.3-349.4-786.8-362-794.6c-10.6-6.9-24.4-6.1-58.9,2
		c-24.7,6.1-298.5,58.7-608,117.3c-846,157.9-1019.4,198.5-1375.6,319.4c-167.4,57.2-186.6,67.5-191.5,102.9
		c-1.6,11.4,74.9,221,195.9,537.8c172.6,450.7,201.7,520.8,218.4,532.7c11.3,7,26.2,12.5,33.8,11.5
		C22791.9,22121.4,23278.2,21937.4,23865.7,21712.9z"/>
	<path d="M21784,19828c-112.2-41.5-196.5-111.8-247.5-205.5c-25-45.7-475.4-1205.1-488.6-1257.3c-16-61.5-8.7-138.9,18.5-197.1
		c37-80.1,102.6-139.8,205.9-186.8c101.2-46.6,245.8-91.3,339.8-105.5c306.4-46.7,621.9-70.4,995.2-73.7
		c294.8-2.7,604.4,6.3,1276.4,36.9c182.9,8.4,448,18.6,589.8,23.3c245.7,7.5,265.3,8.9,404.6,31.7c156.6,25.8,218.2,43.9,316.4,92.4
		c105.8,52.9,198.4,146.9,247.6,253.9c25.1,54.6,350.1,968.2,363.3,1020.5c24.7,101.6-17.4,208.9-106.7,272.8
		c-78.7,55.9-170.6,69.7-385,57.6c-116.2-7.3-142.4-5.5-1607.5,114.1c-1041,84.4-1509.5,125-1555.9,135.6
		c-103.2,21.8-143.2,25.1-230.5,15.7C21856.6,19850.4,21826.8,19844.2,21784,19828z M22061.6,19424.2c40.4-11.4,344.7-38,1597.5-140
		c879.7-71.4,1573.5-124.3,1607.4-123l58.9,2.7l-125.2-354.8c-69-195-131.6-368-139.6-383.4c-31.2-65-72.3-83-254.3-112.4
		c-120-19.4-155.1-22.2-354-28c-121.5-3.9-354.8-12.5-518.6-20.2c-666.5-30.6-1026.9-41.8-1275.9-40.2
		c-480.9,2.7-960.9,47.2-1106.2,101.9c-56.2,21.5-59.2,23.8-53.7,38.2c21.5,60.9,394.1,1015.2,403.1,1033.5
		c13.1,28.4,18.8,31.2,70.6,36.4C21999.7,19438.1,22026.7,19435,22061.6,19424.2z"/>
	<path d="M18292.5,19171.2c-40.1-15.8-89.9-59.5-109.3-96.3c-9-18.3-197.7-514.8-418.5-1104.5
		c-220.8-588.9-403.6-1074.4-405.9-1077.5c-6.2-9-213.7,164.6-216,180.6c-0.1,0.7,83.9,225,187.9,497.1
		c103.3,272,194.2,515.7,202.2,541.4c28.2,91.2-2.6,180.3-80.3,234.2c-49.7,34-90.7,44.7-148.9,36.6c-41.5-5.8-53.1-10.1-89.8-35.7
		c-29.8-21.2-48.4-39.4-60.8-63c-31-56.8-456-1187.4-461.9-1228.4c-11.1-72.4,18.6-133.7,117.1-244.1
		c97.6-109.1,188.9-187.1,399.4-338.5c169.6-121.6,202.4-136.8,273.9-126.9c24.1,3.3,55,11.1,68,16.3c30.2,13.1,81.7,64.5,97.1,96
		c14.8,30.7,906.4,2405.3,921.3,2455.1c13.6,44.2,5.9,114.7-17.7,161.8c-21.7,43.3-88.6,93.3-135.5,101.8
		S18324.9,19183.9,18292.5,19171.2z"/>
	<path d="M21004.6,17970.7c-19.8-9.6-41.6-29-62.6-55c-29.6-36.8-69.7-136.5-497-1236c-256.2-657.9-472.4-1216.9-480.4-1242.6
		c-12.3-39.2-13.7-53.7-7.7-96.5c8.9-59.4,32-97.8,83.7-136.3c37.2-27.5,42.2-28.9,297.5-80.7c274.9-55.2,415.7-73.1,535.1-68.8
		c80.7,3,145.5,42,181.3,108.3c25.5,47.2,484.5,1267,491.4,1305.5c13.6,74.1-22.6,157.7-86.6,201.3c-88.1,60-199.7,48.6-271.7-26.8
		c-33.4-34.6-30.9-27.5-262.2-639.7c-169.4-448.9-194.8-511-208.7-514.3c-20.4-5.6-261.8,39.3-260.9,47.6
		c0.1,4.1,189.1,493.2,420.9,1087.1c231,594.4,423.8,1095.7,428.6,1114.7c9.3,40.8,1.6,101.1-18.2,140.6
		c-19.7,38.8-76,85.6-121.8,101.7C21119.5,17996.8,21049.3,17991.9,21004.6,17970.7z"/>
</g>
<text transform="matrix(1 0 0 1 1713.144 1488.6665)" class="st1 st2">DEVSTART</text>
<text transform="matrix(1 0 0 1 2151.4458 1751.042)"><tspan x="0" y="0" class="st3 st4">getting started with</tspan><tspan x="-214.4" y="289.2" class="st3 st4">developemntal science</tspan></text>
</svg>
