<?xml version="1.0" standalone="no"?>
<!DOCTYPE svg PUBLIC "-//W3C//DTD SVG 20010904//EN"
 "http://www.w3.org/TR/2001/REC-SVG-20010904/DTD/svg10.dtd">
<svg version="1.0" xmlns="http://www.w3.org/2000/svg"
 width="6318.000000pt" height="5243.000000pt" viewBox="0 0 6318.000000 5243.000000"
 preserveAspectRatio="xMidYMid meet">

<g transform="translate(0.000000,5243.000000) scale(0.100000,-0.100000)"
fill="#000000" stroke="none">
<path d="M18325 44670 c-1212 -59 -2362 -294 -3480 -712 -621 -232 -1287 -552
-1860 -896 -1250 -748 -2347 -1737 -3226 -2907 -858 -1141 -1510 -2477 -1883
-3850 -336 -1240 -458 -2532 -360 -3810 104 -1363 452 -2699 1027 -3935 342
-735 558 -1129 783 -1420 104 -135 167 -173 290 -174 60 0 80 4 137 32 41 20
78 48 97 72 54 68 807 1447 820 1502 35 143 -35 289 -168 355 -47 23 -70 28
-132 28 -97 0 -167 -31 -229 -101 -26 -30 -138 -221 -288 -494 -134 -245 -248
-448 -252 -452 -3 -4 -37 48 -75 115 -38 67 -76 133 -84 147 -13 25 11 74 680
1355 382 732 701 1345 708 1364 8 19 13 65 13 102 -2 121 -66 225 -171 276
-49 24 -69 28 -142 28 -76 0 -91 -3 -139 -30 -29 -16 -70 -48 -90 -71 -22 -26
-259 -469 -626 -1172 -325 -622 -593 -1127 -597 -1124 -10 11 -133 299 -210
492 -375 945 -620 1966 -713 2980 -32 350 -39 530 -39 985 -1 460 5 605 40
980 192 2081 997 4067 2319 5720 470 587 1045 1163 1640 1639 584 469 1184
854 1860 1196 428 216 760 361 1180 513 1195 434 2404 647 3670 647 498 0 955
-29 1370 -85 833 -114 1512 -279 2267 -551 154 -56 547 -210 556 -219 2 -1
-2187 -3982 -4864 -8846 -2676 -4864 -4868 -8852 -4869 -8861 -2 -9 -189 -353
-415 -763 -226 -411 -412 -751 -413 -756 -4 -19 479 -322 820 -515 165 -93
713 -374 730 -374 9 0 214 368 314 565 69 137 10275 18685 10288 18698 6 6
365 -229 436 -287 l30 -24 -22 -46 c-12 -25 -294 -539 -626 -1143 -333 -604
-618 -1125 -635 -1158 -100 -200 -106 -410 -17 -581 44 -85 92 -142 178 -211
40 -31 131 -114 202 -183 72 -69 211 -191 310 -270 194 -155 284 -241 442
-420 242 -276 375 -466 770 -1110 110 -179 250 -402 312 -497 l112 -171 82
-41 c196 -97 382 -74 527 65 70 66 116 135 195 295 32 63 289 551 571 1086
282 534 528 1006 545 1048 l32 76 40 -68 c93 -161 197 -355 314 -590 l126
-252 -54 -59 c-30 -32 -67 -83 -83 -113 -16 -29 -313 -569 -659 -1199 -347
-630 -642 -1174 -658 -1210 -93 -219 -91 -422 6 -557 19 -26 51 -77 72 -112
20 -35 75 -112 121 -170 47 -58 88 -115 93 -126 4 -11 23 -58 43 -105 59 -143
96 -308 160 -720 20 -124 52 -309 72 -412 l37 -186 101 -53 c95 -50 106 -53
186 -57 69 -3 96 0 143 18 124 47 201 135 331 377 267 498 950 1759 956 1766
10 11 15 -18 44 -253 28 -216 49 -437 68 -695 15 -192 15 -1183 1 -1303 l-8
-74 -106 -42 c-943 -379 -2218 -1895 -3195 -3801 -813 -1585 -1224 -3100
-1069 -3935 7 -41 16 -88 19 -105 7 -36 14 -30 -374 -290 -420 -281 -773 -484
-1245 -716 -1135 -557 -2345 -905 -3610 -1038 -237 -25 -504 -46 -510 -39 -3
3 296 526 664 1162 471 815 673 1171 681 1207 34 140 -43 290 -179 353 -35 16
-66 21 -131 21 -76 0 -91 -3 -139 -30 -29 -16 -67 -46 -85 -66 -17 -20 -372
-626 -789 -1347 l-759 -1310 -61 -6 c-179 -17 -267 -19 -267 -6 0 8 115 225
255 484 176 327 258 487 266 524 29 139 -43 277 -180 343 -72 35 -187 33 -263
-4 -32 -16 -72 -46 -90 -67 -33 -37 -744 -1339 -782 -1429 -12 -30 -19 -71
-20 -116 0 -59 4 -80 29 -129 31 -62 82 -114 142 -144 145 -74 696 -116 1018
-77 66 8 123 15 127 15 4 0 5 -6 2 -14 -13 -35 859 13 1351 74 1284 160 2563
547 3714 1125 l108 54 51 -62 c27 -34 110 -121 184 -192 284 -278 599 -467
978 -590 400 -129 827 -154 1248 -74 635 122 1216 503 1584 1039 85 123 98
147 673 1192 464 846 488 887 509 876 75 -39 15783 -8683 15790 -8689 4 -4 -4
-103 -18 -221 -81 -667 -54 -1279 84 -1913 226 -1032 728 -1972 1460 -2728
757 -783 1738 -1336 2805 -1581 694 -159 1431 -183 2140 -70 1283 205 2458
843 3314 1799 1077 1202 1586 2771 1420 4375 -83 803 -363 1636 -782 2328
-430 708 -1007 1313 -1687 1769 -1347 902 -3004 1183 -4570 777 -796 -207
-1543 -588 -2181 -1113 l-87 -71 -7923 4360 c-4630 2548 -7923 4366 -7921
4373 2 7 231 426 509 932 278 506 523 957 544 1003 404 877 263 1923 -359
2662 -412 491 -1019 815 -1652 882 -23 3 -26 8 -32 73 -88 853 -229 1551 -475
2340 -253 814 -637 1671 -1090 2430 -309 518 -694 1054 -1082 1510 -395 464
-937 999 -1391 1375 -984 814 -2095 1457 -3292 1906 -1021 383 -2051 605
-3193 690 -245 18 -1006 26 -1260 14z m5675 -1955 c36 -20 66 -38 68 -40 3 -2
-10267 -18672 -10307 -18737 l-16 -26 -125 69 c-173 97 -329 190 -335 199 -3
5 2315 4225 5151 9379 l5157 9371 171 -89 c94 -49 200 -106 236 -126z m1598
-1421 c597 -398 1058 -943 1702 -2014 68 -113 135 -217 148 -232 l26 -28 -17
-52 c-21 -66 -1048 -2011 -1062 -2011 -5 0 -104 153 -218 339 -393 639 -551
860 -881 1230 -114 128 -230 234 -446 408 -165 132 -255 215 -360 331 -25 28
-67 64 -95 80 -32 20 -49 36 -47 47 1 9 232 434 513 945 625 1136 579 1053
586 1053 4 0 72 -43 151 -96z m3190 -4495 c17 -58 52 -193 77 -300 93 -397
126 -514 190 -683 l37 -99 -26 -61 c-44 -101 -920 -1715 -928 -1710 -4 3 -8
15 -8 27 0 55 -82 346 -133 471 -71 175 -107 238 -207 361 -62 77 -85 114
-100 164 -11 35 -20 72 -20 83 0 15 887 1643 1028 1887 l26 44 16 -39 c9 -21
31 -86 48 -145z m1532 -3136 c487 -116 916 -438 1177 -881 132 -225 211 -472
252 -787 19 -148 -6 -439 -53 -622 -29 -111 -87 -266 -137 -366 -60 -119
-3871 -7048 -3942 -7166 -303 -507 -822 -833 -1432 -901 -414 -46 -859 68
-1230 315 -170 113 -393 321 -357 333 6 2 82 47 169 101 1421 878 2603 2025
3515 3411 1039 1578 1664 3365 1832 5235 31 341 40 548 40 952 l1 411 30 -5
c17 -2 77 -16 135 -30z m-884 -1760 c-3 -21 -17 -114 -32 -208 -140 -926 -425
-1880 -826 -2765 -83 -183 -300 -615 -394 -785 -332 -597 -727 -1171 -1172
-1703 -336 -402 -824 -894 -1232 -1243 -88 -75 -95 -79 -72 -33 15 31 21 70
25 179 47 1042 711 2746 1655 4245 639 1014 1351 1838 1924 2227 63 43 101 76
109 94 16 40 22 36 15 -8z m9203 -7930 c4304 -2368 7828 -4307 7830 -4309 2
-1 -32 -43 -76 -91 -530 -593 -964 -1381 -1189 -2161 -3 -11 -11 -9 -36 6 -18
11 -3536 1947 -7818 4302 -4282 2356 -7791 4288 -7798 4295 -10 9 110 235 610
1143 452 822 627 1131 637 1127 8 -3 3536 -1943 7840 -4312z m12296 -3123
c882 -56 1702 -329 2455 -818 469 -304 920 -727 1256 -1177 827 -1105 1164
-2491 938 -3855 -163 -979 -629 -1909 -1321 -2632 -405 -422 -812 -727 -1328
-994 -1193 -616 -2575 -730 -3848 -318 -508 165 -992 412 -1432 733 -364 265
-764 661 -1046 1036 -470 623 -794 1380 -930 2170 -78 454 -91 1015 -33 1465
162 1266 791 2417 1769 3235 780 652 1784 1064 2790 1145 72 5 148 12 170 13
96 8 413 6 560 -3z"/>
<path d="M50470 19120 c-689 -45 -1334 -295 -1875 -727 -148 -118 -400 -372
-509 -513 -456 -590 -693 -1239 -713 -1955 -7 -249 5 -418 44 -650 172 -1031
833 -1927 1764 -2395 660 -332 1400 -434 2124 -294 833 162 1580 649 2070
1349 267 382 459 838 541 1290 64 350 70 730 18 1085 -118 810 -558 1578
-1194 2086 -547 436 -1180 680 -1880 724 -179 11 -216 11 -390 0z m555 -644
c616 -91 1158 -367 1577 -805 307 -320 532 -722 652 -1162 53 -192 78 -378 83
-610 6 -249 -5 -385 -48 -602 -58 -293 -197 -643 -354 -892 -144 -229 -396
-512 -594 -668 -631 -496 -1429 -689 -2206 -532 -481 97 -954 345 -1312 688
-429 412 -704 941 -798 1537 -23 141 -31 513 -15 667 99 972 738 1830 1638
2198 254 103 521 169 787 194 133 13 465 5 590 -13z"/>
<path d="M15080 42389 c-1287 -105 -2423 -791 -3102 -1872 -108 -172 -265
-484 -336 -664 -271 -698 -344 -1423 -217 -2167 41 -235 142 -590 231 -805
385 -933 1054 -1652 1949 -2095 878 -435 1864 -531 2823 -275 935 250 1784
865 2308 1674 350 541 555 1112 636 1775 18 142 17 699 0 845 -120 992 -545
1849 -1245 2504 -313 292 -620 502 -1012 692 -414 199 -828 319 -1295 374
-163 19 -581 27 -740 14z m360 -641 c1 -86 -124 -1654 -132 -1659 -5 -3 -51
-9 -101 -12 -172 -12 -356 -61 -545 -145 l-103 -46 -24 30 c-13 16 -255 308
-539 649 -509 613 -514 620 -494 638 39 33 237 148 368 213 395 196 813 311
1265 347 22 2 100 4 173 5 131 2 132 2 132 -20z m763 -78 c469 -118 923 -345
1307 -654 111 -89 292 -256 288 -266 -2 -5 -244 -203 -538 -441 -294 -238
-590 -477 -657 -531 l-122 -99 -78 58 c-199 150 -454 268 -673 312 -30 6 -64
13 -75 16 -21 4 63 0 202 -11 81 -6 82 -6 87 17 3 13 30 371 61 794 56 773 61
835 71 835 3 0 61 -14 127 -30z m-2673 -1525 c282 -341 520 -628 528 -637 14
-16 11 -23 -30 -75 -104 -133 -196 -300 -259 -468 l-37 -100 -48 3 c-161 11
-1627 141 -1630 145 -3 2 5 47 16 98 132 597 433 1165 849 1602 60 62 77 75
86 65 7 -7 243 -292 525 -633z m4744 -3 c305 -507 463 -1048 490 -1674 5 -107
4 -118 -12 -118 -17 0 -1617 138 -1657 143 -17 2 -22 16 -36 117 -26 183 -63
311 -136 474 -24 54 -43 102 -41 107 5 15 1312 1068 1320 1063 4 -3 36 -53 72
-112z m-2639 -716 c119 -30 292 -113 385 -184 310 -235 474 -633 416 -1011
-77 -504 -472 -877 -975 -920 -715 -62 -1288 582 -1144 1289 87 433 426 760
875 846 114 21 319 12 443 -20z m-2782 -1116 c446 -39 812 -72 814 -73 1 -2 9
-46 17 -98 24 -161 72 -323 135 -463 17 -38 30 -70 29 -72 -42 -41 -1306
-1053 -1313 -1051 -15 5 -97 145 -174 297 -220 433 -342 895 -367 1388 l-7
142 27 0 c15 0 392 -32 839 -70z m5009 -513 c455 -40 830 -75 833 -78 9 -9
-51 -247 -97 -384 -164 -491 -419 -919 -769 -1289 l-74 -78 -529 638 c-291
352 -535 646 -543 655 -12 14 -7 25 40 85 99 128 191 294 241 433 32 90 33 91
54 91 9 -1 389 -33 844 -73z m-3387 -864 c74 -46 232 -123 315 -153 19 -7 38
-16 43 -20 6 -5 -106 -1585 -119 -1666 l-4 -32 -103 24 c-578 135 -1144 442
-1567 850 -61 59 -109 111 -108 115 2 4 295 244 652 533 l649 525 81 -63 c45
-35 117 -86 161 -113z m2250 -706 c521 -629 537 -649 519 -667 -30 -28 -198
-125 -344 -199 -443 -225 -991 -361 -1452 -361 -101 0 -108 1 -108 20 0 11 27
377 60 815 33 438 60 806 60 818 0 22 6 24 103 36 192 24 361 72 529 151 46
21 86 38 89 37 4 -1 248 -294 544 -650z"/>
<path d="M23044 38065 c-100 -32 -188 -98 -247 -187 -40 -62 -874 -1600 -924
-1705 -122 -255 -52 -573 177 -804 47 -47 108 -101 136 -120 28 -19 767 -752
1641 -1629 1487 -1492 1596 -1604 1693 -1735 180 -244 312 -350 462 -375 122
-19 260 29 341 120 42 47 747 1244 817 1389 87 177 110 348 72 531 -53 256
-197 506 -543 940 -108 135 -366 466 -574 735 -958 1240 -1220 1552 -1744
2075 -401 400 -520 501 -731 621 -214 121 -321 159 -445 158 -49 -1 -108 -7
-131 -14z m442 -808 c268 -222 654 -616 1010 -1032 261 -304 488 -588 1084
-1360 217 -280 481 -620 589 -755 317 -399 431 -594 431 -741 0 -51 7 -37
-375 -692 -121 -207 -222 -377 -225 -377 -4 0 -28 30 -55 68 -61 84 -3320
3344 -3390 3391 -53 35 -100 91 -110 132 -5 19 76 176 392 759 219 404 402
741 407 748 12 20 132 -50 242 -141z"/>
<path d="M11139 35105 c-61 -20 -134 -70 -180 -126 -45 -54 -758 -1272 -810
-1385 -100 -216 -110 -402 -33 -632 76 -231 215 -457 500 -812 99 -124 342
-434 539 -690 816 -1058 1152 -1469 1551 -1895 181 -193 481 -485 655 -636
123 -108 170 -141 312 -222 186 -106 275 -142 383 -158 164 -25 329 44 427
178 53 73 937 1709 966 1788 23 62 26 85 25 205 0 119 -3 144 -27 215 -53 159
-174 322 -317 425 -33 25 -775 760 -1649 1635 -1516 1516 -1595 1597 -1697
1735 -142 192 -246 295 -348 345 -69 35 -87 39 -164 42 -57 2 -103 -2 -133
-12z m214 -847 c30 -40 784 -805 1676 -1700 1226 -1230 1639 -1638 1693 -1674
75 -50 128 -118 128 -163 -1 -26 -791 -1493 -808 -1499 -5 -1 -47 20 -93 47
-203 119 -704 613 -1145 1127 -271 316 -550 666 -1169 1469 -170 220 -396 510
-502 644 -272 341 -364 483 -417 643 -31 93 -32 117 -5 171 22 45 581 1007
584 1007 2 0 27 -33 58 -72z"/>
<path d="M20085 32986 c-174 -34 -347 -151 -452 -306 -40 -60 -799 -1438 -833
-1515 -117 -257 -61 -570 139 -779 77 -80 171 -140 411 -261 521 -262 867
-395 2070 -795 377 -125 732 -247 790 -269 58 -23 141 -49 184 -58 262 -52
535 73 704 322 118 175 669 1068 698 1131 18 41 41 102 50 136 19 74 21 217 4
291 -33 145 -146 296 -283 381 -99 61 -2933 1620 -3032 1667 -44 22 -111 46
-150 54 -82 17 -216 18 -300 1z m1663 -1434 c1168 -642 1482 -819 1479 -832
-10 -38 -673 -1083 -693 -1092 -17 -8 -37 -4 -86 15 -35 14 -426 147 -868 296
-1209 404 -1455 499 -1953 749 -234 118 -260 137 -260 190 0 17 155 309 397
749 345 626 402 723 429 737 18 8 41 13 52 10 11 -4 687 -373 1503 -822z"/>
<path d="M18310 29211 c-173 -38 -311 -124 -405 -251 -46 -62 -943 -1671 -973
-1745 -36 -87 -41 -202 -13 -293 38 -125 122 -226 264 -316 139 -89 342 -184
477 -224 440 -131 898 -230 1445 -311 432 -64 888 -114 1880 -206 270 -25 661
-64 870 -86 362 -39 391 -41 600 -36 235 6 329 20 483 71 166 56 321 175 415
322 48 75 711 1349 741 1423 57 144 17 310 -101 422 -104 98 -236 137 -553
163 -172 13 -210 21 -2335 495 -1510 336 -2189 491 -2255 516 -147 53 -205 66
-335 70 -94 4 -139 1 -205 -14z m325 -649 c57 -25 498 -126 2315 -531 1276
-284 2283 -503 2333 -508 l87 -8 -256 -495 c-141 -272 -268 -513 -283 -534
-59 -89 -123 -107 -396 -113 -180 -4 -232 -1 -525 31 -179 19 -523 54 -765 76
-984 91 -1515 148 -1880 201 -705 102 -1400 265 -1602 375 -78 43 -82 47 -71
67 44 85 785 1409 802 1434 25 39 34 42 111 39 42 -1 81 -11 130 -34z"/>
<path d="M13054 28959 c-62 -15 -144 -69 -180 -119 -17 -25 -395 -715 -839
-1535 -444 -819 -811 -1494 -815 -1498 -11 -12 -280 285 -280 309 0 1 169 313
377 691 207 378 390 717 407 753 60 128 33 265 -70 360 -66 60 -124 84 -211
84 -62 0 -80 -4 -139 -34 -48 -25 -79 -48 -102 -80 -57 -77 -911 -1649 -928
-1708 -31 -104 0 -200 122 -382 121 -180 239 -313 517 -578 224 -213 269 -242
376 -242 36 0 83 5 103 10 47 13 133 78 162 121 28 42 1820 3344 1852 3414 29
62 32 167 7 241 -23 68 -111 155 -178 177 -67 22 -131 28 -181 16z"/>
<path d="M16788 26645 c-31 -10 -67 -34 -103 -68 -51 -48 -130 -186 -981
-1712 -510 -913 -941 -1689 -958 -1725 -26 -55 -31 -76 -31 -140 1 -89 27
-150 95 -217 49 -48 56 -51 420 -179 392 -137 595 -192 771 -210 119 -12 222
32 288 122 47 64 969 1760 987 1815 35 106 -1 236 -86 313 -117 106 -283 112
-404 16 -56 -44 -51 -34 -515 -885 -340 -624 -390 -710 -411 -712 -31 -4 -376
111 -373 123 1 6 378 685 839 1509 460 825 845 1521 856 1548 22 58 23 148 2
210 -21 61 -94 141 -158 174 -64 33 -168 40 -238 18z"/>
</g>
</svg>
