<?xml version="1.0" encoding="UTF-8"?>
<svg id="Layer_1" data-name="Layer 1" xmlns="http://www.w3.org/2000/svg" viewBox="0 0 4470.4 5194.31">
  <defs>
    <style>
      .cls-1 {
        letter-spacing: -.03em;
      }

      .cls-2 {
        fill: #00b3b3;
        stroke: teal;
        stroke-miterlimit: 10;
        stroke-width: 105px;
      }

      .cls-3 {
        letter-spacing: 0em;
      }

      .cls-4 {
        font-family: Lato-SemiboldItalic, Lato;
        font-size: 573px;
        font-style: italic;
      }

      .cls-4, .cls-5 {
        font-weight: 600;
      }

      .cls-6 {
        letter-spacing: -.02em;
      }

      .cls-7 {
        letter-spacing: -.02em;
      }

      .cls-8 {
        stroke-width: 0px;
      }

      .cls-9 {
        letter-spacing: 0em;
      }

      .cls-10 {
        letter-spacing: 0em;
      }

      .cls-11 {
        letter-spacing: -.06em;
      }

      .cls-12 {
        letter-spacing: -.02em;
      }

      .cls-13 {
        letter-spacing: -.02em;
      }

      .cls-14 {
        letter-spacing: -.01em;
      }

      .cls-15 {
        letter-spacing: 0em;
      }

      .cls-16 {
        letter-spacing: 0em;
      }

      .cls-5 {
        font-family: Lato-Semibold, Lato;
        font-size: 241px;
      }

      .cls-17 {
        letter-spacing: 0em;
      }
    </style>
  </defs>
  <polygon class="cls-2" points="4417.9 3865.37 4417.9 1328.94 2235.2 60.72 52.5 1328.94 52.5 3865.37 2235.2 5133.59 4417.9 3865.37"/>
  <g>
    <path class="cls-8" d="m1108.12,2196.53c-80.5,15.21-155.22,41.6-226.11,79.94-39.37,21.28-80.94,48.87-116.06,77.2-76.64,61.63-140.82,137.96-188.73,224.37-46.78,84.27-77.97,179.67-90.16,274.96-10.95,86.05-7.11,173.58,11.32,258.13,19.62,90.18,55.3,176.29,105.24,253.61,29.7,45.98,47.8,70.32,65.55,87.69,8.21,8.06,12.78,10.02,21.01,8.94,4.01-.56,5.31-1.01,8.86-3.41,2.56-1.72,4.77-3.93,5.82-5.72,2.98-5.05,40.52-104.26,40.88-108.06,1.01-9.89-5.03-19-14.53-22.18-3.36-1.1-4.94-1.22-9.09-.65-6.49.9-10.88,3.62-14.38,8.88-1.46,2.25-7.18,16.06-14.67,35.71-6.68,17.63-12.42,32.26-12.65,32.57-.16.3-2.92-2.87-6.08-6.99-3.16-4.13-6.32-8.19-6.98-9.05-1.1-1.55.05-5.05,32.89-96.93,18.75-52.5,34.38-96.46,34.67-97.79.36-1.34.27-4.47-.08-6.94-1.26-8.07-6.5-14.43-14-16.87-3.5-1.15-4.87-1.23-9.76-.55-5.08.71-6.06,1.05-9.02,3.3-1.79,1.34-4.24,3.86-5.36,5.58-1.23,1.94-12.96,33.77-30.97,84.19-15.96,44.61-29.19,80.88-29.48,80.71-.77-.64-11.67-18.76-18.61-30.95-33.86-59.71-59.73-125.71-75.37-192.66-5.39-23.11-7.53-35.08-11.76-65.51-4.34-30.75-5.29-40.51-6.43-65.91-6.49-140.95,28.89-281.24,101.94-404.06,25.98-43.62,59.08-87.48,94.45-124.84,34.7-36.79,71.24-68.11,113.27-97.26,26.62-18.42,47.47-31.2,74.15-45.27,75.88-40.13,154.75-65.6,239.42-77.36,33.3-4.63,64.13-6.93,92.41-7.04,56.77-.12,103.71,4.61,156.72,15.79,10.82,2.31,38.53,8.96,39.22,9.48.14.05-109.26,286.61-243.09,636.75-133.77,350.14-243.3,637.19-243.29,637.8-.05.62-9.36,25.36-20.66,54.88-11.3,29.58-20.58,54.05-20.6,54.39-.09,1.31,35.02,17.08,59.62,26.82,11.9,4.69,51.16,18.39,52.29,18.23.6-.08,10.89-26.6,15.75-40.7,3.34-9.8,513.54-1345,514.29-1345.99.35-.46,26.54,11.92,31.82,15.14l2.23,1.33-1.04,3.28c-.57,1.78-14.65,38.78-31.24,82.25-16.66,43.49-30.88,80.97-31.71,83.34-4.83,14.3-3.28,28.4,4.26,39.01,3.73,5.28,7.47,8.64,13.86,12.46,2.96,1.7,9.82,6.41,15.21,10.36,5.46,3.95,15.88,10.81,23.24,15.18,14.41,8.56,21.23,13.48,33.46,23.98,18.75,16.21,29.41,27.68,61.81,67.08,9.02,10.95,20.45,24.56,25.48,30.34l9.08,10.39,5.86,1.98c14.01,4.67,26.23,1.4,34.64-9.24,4.07-5.06,6.5-10.11,10.3-21.54,1.55-4.51,14.21-39.53,28.1-77.93,13.9-38.33,25.96-72.18,26.71-75.15l1.43-5.38,3.31,4.18c7.72,9.9,16.47,21.91,26.48,36.54l10.77,15.68-3.06,4.45c-1.71,2.42-3.71,6.17-4.5,8.33-.8,2.09-15.65,40.96-32.93,86.3-17.35,45.35-32.03,84.47-32.76,87.03-4.18,15.51-2.17,29.07,5.58,37.19,1.51,1.56,4.13,4.68,5.86,6.82,1.66,2.15,6.06,6.79,9.67,10.24,3.68,3.44,6.95,6.87,7.39,7.56.37.7,2.08,3.67,3.85,6.62,5.27,9.01,9.28,19.71,17.39,46.66,2.49,8.11,6.35,20.18,8.64,26.88l4.2,12.09,7.25,2.61c6.82,2.46,7.58,2.56,12.97,2.08,4.64-.44,6.42-.89,9.4-2.53,7.86-4.3,12.19-10.9,18.63-28.29,13.23-35.78,47.19-126.46,47.52-126.98.57-.83,1.17,1.06,5.29,16.51,3.88,14.18,7.34,28.77,11,45.85,2.79,12.7,11.99,78.97,12.17,87.13l.15,5.02-6.7,3.79c-59.54,34.11-130.72,147.33-178.35,283.87-39.64,113.55-53.05,218.68-34.93,273.08.85,2.68,1.89,5.74,2.25,6.85.8,2.34,1.21,1.88-22.32,22.87-25.48,22.69-47.2,39.55-76.61,59.45-70.73,47.79-148.41,82.31-231.77,102.95-15.62,3.87-33.28,7.76-33.74,7.35-.23-.17,14.91-37.93,33.61-83.88,23.93-58.88,34.13-84.56,34.33-87.04.97-9.68-5.57-18.99-15.25-21.94-2.49-.74-4.61-.79-8.96-.19-5.08.71-6.06,1.05-9.02,3.3-1.79,1.34-4.05,3.7-5.07,5.2-.95,1.5-19.06,45.32-40.25,97.41l-38.59,94.66-4.02.97c-11.81,2.8-17.68,3.75-17.8,2.88-.07-.53,5.6-16.12,12.56-34.74,8.73-23.5,12.73-34.96,12.92-37.51.65-9.56-5.45-18.12-15.22-21.27-5.14-1.67-12.81-.47-17.55,2.71-1.99,1.37-4.39,3.75-5.4,5.32-1.86,2.78-37.31,96.46-39.02,102.83-.52,2.12-.61,4.92-.26,7.94.55,3.95,1.01,5.31,3.14,8.36,2.65,3.86,6.54,6.86,10.83,8.31,10.38,3.6,47.62,1.29,68.79-4.31,4.34-1.15,8.09-2.15,8.35-2.18s.39.35.26.92c-.54,2.46,57.32-8.85,89.66-17.5,84.38-22.63,166.32-60.39,237.92-109.74l6.72-4.61,3.99,3.67c2.12,2.02,8.48,7.07,14.09,11.13,21.57,15.95,44.4,25.67,70.88,30.37,27.95,4.91,56.74,2.62,84.15-6.65,41.33-14.06,76.65-44.93,96.28-84.2,4.54-9.02,5.19-10.74,33.93-85.97,23.17-60.89,24.39-63.85,25.9-63.31,5.38,1.91,1136.14,434.04,1136.66,434.37.3.23.69,6.93.85,14.95.78,45.36,8.27,86.03,23.39,127.15,24.7,66.91,67,125.11,122.98,168.87,57.9,45.33,128.64,73.2,202.27,79.67,47.89,4.19,97.4-1.06,143.76-15.2,83.89-25.63,156.54-79.21,204.91-151.09,60.86-90.39,80.32-200.04,54.32-305.77-13.01-52.93-39.47-106.03-73.92-148.42-35.33-43.35-79.54-78.45-129.25-102.63-98.46-47.81-211.88-51.2-312.83-9.5-51.31,21.24-97.72,53.66-135.51,94.69l-5.16,5.56-570.35-217.96c-333.3-127.38-570.4-218.36-570.33-218.85s11.49-30.63,25.38-67.06c13.89-36.42,26.08-68.86,27.06-72.13,18.87-62.4-.28-131.04-48.74-174.68-32.11-29.01-75.72-45.04-118.67-43.64-1.57.01-1.81-.29-2.82-4.58-13.81-56.23-29.72-101.59-53.5-152.07-24.48-52.08-58.12-105.83-95.47-152.38-25.48-31.77-56.2-64.04-86.39-90.93-30.73-27.36-71.94-58.1-105.8-79.03-73.37-45.29-153.64-77.97-237.86-96.88-71.84-16.13-142.78-21.4-219.94-16.48-16.55,1.07-67.52,7.61-84.39,10.77Zm397.67,78.02c2.59,1,4.77,1.93,4.92,2.04.22.11-513.13,1344.05-515.2,1348.77l-.83,1.89-9-3.45c-12.47-4.88-23.77-9.65-24.25-10.2-.25-.31,115.56-304.05,257.33-675.06l257.81-674.58,12.26,4.36c6.74,2.4,14.36,5.23,16.95,6.23Zm120.07,80.18c43.62,21.07,79.51,53.23,132.53,118.87,5.6,6.93,11.04,13.26,12.05,14.14l2,1.63-.65,3.64c-.79,4.61-51.4,144.22-52.34,144.35-.33.05-8.38-9.27-17.73-20.64-32.22-39.08-44.84-52.39-70.34-74.07-8.81-7.5-17.55-13.51-33.62-23.14-12.26-7.29-19.05-12.01-27.15-18.79-1.93-1.64-5.08-3.66-7.1-4.47-2.33-1.04-3.61-1.95-3.58-2.71-.02-.61,11.48-31.18,25.53-67.96,31.24-81.78,28.94-75.8,29.41-75.86.27-.04,5.21,2.21,10.99,5.02Zm255.09,270.96c1.68,3.72,5.27,12.42,7.94,19.35,9.91,25.68,13.2,33.2,19.05,43.91l3.39,6.28-1.17,4.32c-2,7.16-45.59,123.24-46.17,122.98-.3-.16-.67-.93-.79-1.73-.51-3.68-8.7-22.38-13.27-30.26-6.37-11.04-9.37-14.92-17.2-22.22-4.86-4.57-6.74-6.83-8.21-10.04-1.06-2.24-2.01-4.63-2.11-5.36-.14-1,44.05-118.11,51.22-135.74l1.33-3.18,1.43,2.46c.8,1.32,2.87,5.46,4.56,9.25Zm131.59,195.48c33.65,3.23,65.33,20.78,86.9,47.98,10.92,13.82,18.5,29.6,24.16,50.29,2.65,9.72,3.68,29.41,2.23,42.09-.91,7.69-3.35,18.6-5.76,25.75-2.91,8.52-193.39,507.29-197.04,515.84-15.55,36.72-47.23,63.34-87.39,73.56-27.26,6.92-58.08,3.43-85.18-9.64-12.42-5.98-29.26-17.82-26.97-18.95.38-.19,5.05-3.9,10.36-8.32,86.87-71.92,155.26-159.6,203.37-260.76,54.82-115.18,80.02-240.49,73.88-367.1-1.09-23.09-2.42-37.02-6.17-64.04l-3.75-27.49,2.05.06c1.16-.02,5.3.35,9.31.75Zm-42.77,125.91c0,1.43-.08,7.78-.21,14.21-.76,63.23-10.96,129.67-29.55,192.58-3.85,13.01-14.35,43.91-19.06,56.16-16.66,43.01-37.74,85.06-62.55,124.77-18.73,30-46.8,67.44-70.84,94.57-5.19,5.83-5.62,6.17-4.51,2.88.72-2.21.75-4.88,0-12.2-6.54-70.12,22.04-190.24,71.24-299.25,33.31-73.75,73.27-135.47,107.98-166.8,3.81-3.46,6.05-6.02,6.42-7.3.7-2.82,1.14-2.61,1.08.4Zm689.11,444.81c309.82,118.37,563.5,215.3,563.65,215.42.14.05-1.74,3.17-4.24,6.79-29.93,44.58-51.64,101.31-59.44,155.56-.1.76-.65.7-2.46-.07-1.31-.57-254.55-97.35-562.79-215.06-308.24-117.77-560.85-214.37-561.38-214.78-.75-.51,5.17-16.74,30.17-82.1,22.59-59.17,31.42-81.46,32.13-81.28.56.13,254.52,97.09,564.35,215.52Zm851.29,94.61c59.5-4.45,116.88,6.19,171.77,31.9,34.19,15.97,68.28,40.07,94.93,67.04,65.57,66.21,100.98,155.77,98.54,249.08-1.81,66.98-24.33,133.51-63.89,188.28-23.16,31.98-47.55,56.16-79.57,78.81-74.06,52.28-165.42,72.74-254.38,57.01-35.5-6.31-70.17-18.34-102.57-35.71-26.8-14.34-57.23-37.11-79.57-59.56-37.22-37.3-65.92-84.91-82.35-136.48-9.43-29.64-15.52-67.03-15.82-97.66-.93-86.17,30.44-168.98,88.25-232.77,46.1-50.85,109.42-87.73,175.94-102.49,4.77-1,9.79-2.18,11.25-2.45,6.35-1.43,27.56-4.24,37.48-5Z"/>
    <path class="cls-8" d="m3495.14,3606.52c-45.66,9.41-86.47,32.12-118.63,66.04-8.8,9.27-23.29,28.59-29.27,39.04-25.01,43.69-34.83,89.29-29.52,137.36,1.85,16.72,4.22,27.91,8.98,43.06,21.08,67.35,73.61,121.13,140.22,143.77,47.22,16.07,97.66,16.02,144.77-.07,54.2-18.57,99.63-58.08,125.9-109.44,14.31-28.03,22.91-60.3,24.19-91.29,1.03-24-2.1-49.47-8.88-72.73-15.42-53.07-51.98-100.34-99.23-128.41-40.63-24.08-85.23-34.51-132.45-30.95-12.07.93-14.55,1.27-26.08,3.62Zm43.1,37.91c42.04.36,80.85,13.78,112.94,39.18,23.5,18.55,42.28,43.34,54.4,71.65,5.33,12.35,8.73,24.55,11.22,40.02,2.71,16.6,3.24,25.79,2.38,40.7-1.16,20.13-7.2,44.83-15.39,62.94-7.5,16.65-21.73,37.92-33.52,50.19-37.59,39.03-89.16,59.35-142.58,56.07-33.07-2.02-67-14.21-94.13-33.82-32.52-23.57-55.82-56.39-67.64-95.37-2.85-9.22-6.84-34.02-7.2-44.47-2.41-65.92,32.35-129.24,89.12-162.21,16.03-9.25,33.27-16.14,50.83-20.28,8.77-2.1,31.05-4.65,39.58-4.61Z"/>
    <path class="cls-8" d="m912.3,2379.21c-85.09,18.98-154.69,75.41-190.05,154.01-5.62,12.51-13.23,34.83-16.3,47.53-11.64,49.2-9.78,98.36,5.62,146.93,4.93,15.33,14.98,38.14,22.93,51.69,34.41,58.82,85.83,100.68,149.8,121.99,62.76,20.93,129.59,18.19,191.34-7.84,60.2-25.4,111.27-74.42,138.79-133.39,18.38-39.43,26.78-79.52,26.04-124.61-.12-9.66-5.36-46.9-7.85-56.51-17.24-65.22-53.62-118.59-106.52-155.89-23.64-16.62-46.13-27.81-74.11-36.87-29.53-9.46-58.34-13.64-90.08-12.98-11.08.24-39.1,3.59-49.62,5.94Zm30.03,39.52c.87,5.74,7.07,111.76,6.59,112.17-.31.25-3.33,1.08-6.64,1.74-11.39,2.4-23.24,7.39-35.1,14.76l-6.46,4.03-1.88-1.78c-1.02-.95-19.91-18.23-42.07-38.39-39.73-36.26-40.13-36.69-38.96-38.08,2.3-2.57,14.47-12.1,22.63-17.66,24.59-16.78,51.48-28.35,81.37-34.96,1.45-.34,6.65-1.2,11.52-1.94,8.74-1.35,8.81-1.36,9.01.11Zm51.75-1.87c32.46,3.53,64.93,14.5,93.48,31.59,8.25,4.92,21.91,14.41,21.73,15.11-.09.35-14.43,15.84-31.88,34.49-17.45,18.65-35.02,37.38-39,41.61l-7.24,7.75-5.75-3.15c-14.7-8.18-32.85-13.7-47.9-14.61-2.06-.12-4.4-.27-5.16-.37-1.44-.07,4.21-.59,13.61-1.14,5.47-.35,5.54-.36,5.66-1.95.08-.9-1.44-25.09-3.3-53.66-3.44-52.21-3.68-56.41-3.01-56.5.2-.03,4.21.37,8.77.83Zm-164.59,126.82c22.03,20.18,40.61,37.17,41.23,37.69,1.08.94.95,1.44-1.31,5.29-5.72,9.86-10.32,21.88-12.97,33.7l-1.55,7.03-3.24.25c-10.87.76-110.11,5.69-110.35,5.45-.22-.11-.1-3.19.16-6.7,3.28-41.15,18.13-81.93,41.89-115.02,3.44-4.7,4.45-5.73,5.15-5.15.53.4,18.96,17.27,40.99,37.45Zm317.28-43.87c25.11,31.07,40.7,65.78,48.32,107.39,1.33,7.11,1.36,7.85.29,8-1.14.16-109.42,5.79-112.14,5.83-1.16.02-1.62-.87-3.49-7.49-3.44-12-7.1-20.21-13.5-30.43-2.11-3.39-3.82-6.42-3.74-6.77.2-1.05,77.82-83.61,78.4-83.35.3.16,2.9,3.21,5.86,6.82Zm-169.83,72.4c8.24.9,20.58,4.84,27.46,8.73,22.91,12.84,37.58,37.93,37.21,63.74-.47,34.42-23.42,63.03-56.65,70.58-47.24,10.79-91.54-26.95-88.48-75.57,1.8-29.76,21.43-54.78,50.66-64.7,7.43-2.46,21.22-3.77,29.81-2.78Zm-175.68,100.48c30.19-1.54,54.97-2.73,55.11-2.68.09.12,1.03,2.99,2.05,6.4,3.1,10.54,7.82,20.93,13.33,29.71,1.49,2.38,2.66,4.4,2.61,4.55-2.43,3.13-77.55,82.55-78.04,82.48-1.05-.2-7.83-8.8-14.4-18.25-18.73-26.91-31.19-56.67-37.44-89.41l-1.79-9.43,1.81-.25c1-.14,26.51-1.5,56.76-3.11Zm339.74-12.23c30.8-1.55,56.2-2.7,56.43-2.52.69.52-1.12,16.99-2.92,26.58-6.41,34.36-19.48,65.35-39.45,93.34l-4.22,5.9-41.3-37.75c-22.73-20.84-41.78-38.23-42.4-38.76-.93-.82-.7-1.61,1.89-6.06,5.43-9.48,10.04-21.44,12.09-31.2,1.3-6.32,1.36-6.39,2.77-6.59.61-.02,26.32-1.41,57.12-2.96Zm-218.47,89.25c5.38,2.39,16.66,6.07,22.49,7.31,1.34.29,2.69.72,3.06.94.45.28,7.64,106.98,7.52,112.52l.03,2.18-7.11-.65c-39.91-3.66-80.61-18.93-112.69-42.28-4.63-3.38-8.32-6.41-8.29-6.69.1-.29,17.46-19.06,38.65-41.7l38.52-41.14,6,3.46c3.33,1.92,8.62,4.66,11.82,6.06Zm157.03,26.31c40.68,37.22,41.94,38.41,40.9,39.78-1.75,2.15-12.08,10.2-21.16,16.5-27.53,19.16-62.92,33.35-93.75,37.63-6.75.94-7.23.94-7.41-.33-.1-.74-1.7-25.46-3.56-55.06-1.86-29.6-3.48-54.46-3.59-55.26-.2-1.47.18-1.66,6.55-3.36,12.62-3.39,23.47-8.17,33.97-15.01,2.88-1.83,5.4-3.34,5.61-3.3.28.03,19.32,17.36,42.42,38.41Z"/>
    <path class="cls-8" d="m1485.06,2594.39c-6.39,3.07-11.66,8.3-14.78,14.8-2.1,4.52-43.58,115.12-45.95,122.6-5.79,18.19,1.85,38.8,19.31,52.12,3.58,2.71,8.16,5.75,10.21,6.76s58.28,43.16,124.87,93.69c113.3,85.96,121.63,92.44,129.34,100.3,14.3,14.64,24.12,20.51,34.38,20.79,8.34.14,17.12-4.35,21.69-11.19,2.37-3.53,38.4-90.13,41.73-100.48,4.17-12.64,4.12-24.29-.12-36.18-5.92-16.63-17.88-32.01-45.05-57.82-8.48-8.02-28.81-27.76-45.21-43.82-75.59-74.02-96-92.45-135.91-122.56-30.53-23.02-39.43-28.67-54.65-34.74-15.44-6.1-22.94-7.65-31.23-6.43-3.27.52-7.16,1.47-8.63,2.15Zm37.06,49.93c19.98,12.36,49.46,35.12,77.13,59.63,20.28,17.9,38.1,34.79,85.13,80.88,17.11,16.71,37.93,36.99,46.4,45.02,24.91,23.74,34.34,35.72,35.71,45.55.47,3.41.81,2.41-18.65,49.76-6.17,14.97-11.34,27.27-11.54,27.3-.27.04-2.15-1.75-4.31-4.04-4.86-5.05-253.09-192.78-258.21-195.28-3.87-1.85-7.53-5.16-8.58-7.81-.51-1.22,3.45-12.48,19.16-54.4,10.89-29.05,20-53.29,20.27-53.8.62-1.45,9.29,2.12,17.49,7.18Z"/>
    <path class="cls-8" d="m716.42,2902.94c-3.89,1.9-8.31,5.93-10.87,10.1-2.51,4.03-38.87,92.11-41.3,100.15-4.68,15.37-3.62,27.91,3.66,42.57,7.23,14.74,18.62,28.56,40.98,49.66,7.77,7.37,26.9,25.85,42.46,41.14,64.4,63.17,90.69,87.54,121.33,112.32,13.9,11.23,36.67,27.97,49.71,36.45,9.23,6.08,12.68,7.85,22.93,11.95,13.42,5.36,19.71,6.94,27.08,7.01,11.2.15,21.59-6,26.9-15.87,2.87-5.37,46.78-122.99,47.99-128.54.96-4.36.95-5.93-.23-13.94-1.11-7.96-1.54-9.6-3.8-14.13-5.02-10.14-14.63-19.92-25.15-25.48-2.44-1.37-58.89-43.62-125.46-94.02-115.46-87.3-121.5-91.98-129.6-100.26-11.28-11.52-19.19-17.44-26.48-19.84-4.94-1.7-6.18-1.8-11.36-1.29-3.83.4-6.87,1.09-8.78,2.04Zm22.18,54.65c2.38,2.4,59.91,46.55,127.87,98.12,93.41,70.86,124.82,94.31,128.77,96.22,5.48,2.65,9.66,6.7,10.07,9.71.17,1.75-39.03,107.19-40.11,107.75-.33.11-3.33-.9-6.66-2.28-14.68-6.07-52.77-34.45-87.04-64.73-21.06-18.61-42.97-39.43-91.82-87.38-13.41-13.13-31.22-30.43-39.55-38.4-21.36-20.28-28.83-28.92-33.86-39.13-2.94-5.93-3.23-7.53-1.92-11.39,1.05-3.21,29.5-72.74,29.7-72.77.13-.02,2.11,1.96,4.55,4.28Z"/>
    <path class="cls-8" d="m1334.36,2961.53c-11.32,3.89-21.8,13.32-27.38,24.66-2.12,4.38-40.07,103.59-41.63,109.05-5.44,18.27,1.22,38.68,16.53,50.8,5.89,4.63,12.74,7.77,29.91,13.64,37.28,12.68,61.65,18.36,145.81,33.93,26.37,4.86,51.25,9.72,55.33,10.65,4.09,1,9.88,1.97,12.84,2.17,18,1.04,35.1-9.85,44.09-28.07,6.27-12.8,34.82-77.64,36.17-82.12.82-2.91,1.79-7.2,2.08-9.56.58-5.13-.61-14.71-2.44-19.5-3.55-9.39-12.51-18.44-22.46-22.85-7.19-3.16-211.19-81.09-218.25-83.31-3.15-1.06-7.85-2.04-10.53-2.22-5.64-.38-14.61.8-20.07,2.72Zm124.53,80.45c84.07,32.08,106.72,41,106.64,41.9-.32,2.63-34.94,78.68-36.2,79.46-1.06.69-2.44.61-5.89-.2-2.47-.61-29.85-5.87-60.8-11.73-84.6-15.79-101.94-19.85-137.56-31.94-16.74-5.72-18.66-6.75-19.15-10.29-.16-1.14,7.49-22.1,19.59-53.78,17.26-45.07,20.17-52.08,21.84-53.27,1.13-.7,2.62-1.25,3.38-1.15.77.17,49.41,18.56,108.15,41.01Z"/>
    <path class="cls-8" d="m1250.73,3230.47c-11.22,4.15-19.65,11.18-24.75,20.55-2.5,4.57-47.54,120.51-48.86,125.73-1.6,6.15-.87,13.89,1.85,19.71,3.7,8.01,10.26,13.98,20.59,18.68,10.12,4.66,24.58,9.13,33.98,10.55,30.64,4.67,62.19,7.04,99.52,7.37,29.48.27,60.44-.63,127.64-3.69,18.29-.84,44.8-1.86,58.98-2.33,24.57-.76,26.53-.89,40.46-3.17,15.66-2.58,21.82-4.39,31.64-9.24,10.58-5.29,19.84-14.69,24.76-25.39,2.51-5.46,35.01-96.82,36.33-102.05,2.47-10.16-1.74-20.89-10.67-27.28-7.87-5.59-17.06-6.97-38.5-5.76-11.62.73-14.24.55-160.75-11.41-104.1-8.44-150.95-12.5-155.59-13.56-10.32-2.18-14.32-2.51-23.05-1.57-6.32.61-9.3,1.22-13.58,2.84Zm27.76,40.38c4.04,1.14,34.47,3.8,159.75,14,87.97,7.14,157.35,12.43,160.74,12.3l5.89-.27-12.52,35.48c-6.9,19.5-13.16,36.8-13.96,38.34-3.12,6.5-7.23,8.3-25.43,11.24-12,1.94-15.51,2.22-35.4,2.8-12.15.39-35.48,1.25-51.86,2.02-66.65,3.06-102.69,4.18-127.59,4.02-48.09-.27-96.09-4.72-110.62-10.19-5.62-2.15-5.92-2.38-5.37-3.82,2.15-6.09,39.41-101.52,40.31-103.35,1.31-2.84,1.88-3.12,7.06-3.64,2.82-.32,5.52-.02,9.01,1.07Z"/>
    <path class="cls-8" d="m901.58,3296.15c-4.01,1.58-8.99,5.95-10.93,9.63-.9,1.83-19.77,51.48-41.85,110.45-22.08,58.89-40.36,107.44-40.59,107.75-.62.9-21.37-16.46-21.6-18.06,0-.07,8.39-22.5,18.79-49.71,10.33-27.2,19.42-51.57,20.22-54.14,2.82-9.12-.26-18.03-8.03-23.42-4.97-3.4-9.07-4.47-14.89-3.66-4.15.58-5.31,1.01-8.98,3.57-2.98,2.12-4.84,3.94-6.08,6.3-3.1,5.68-45.6,118.74-46.19,122.84-1.11,7.24,1.86,13.37,11.71,24.41,9.76,10.91,18.89,18.71,39.94,33.85,16.96,12.16,20.24,13.68,27.39,12.69,2.41-.33,5.5-1.11,6.8-1.63,3.02-1.31,8.17-6.45,9.71-9.6,1.48-3.07,90.64-240.53,92.13-245.51,1.36-4.42.59-11.47-1.77-16.18-2.17-4.33-8.86-9.33-13.55-10.18-4.68-.85-9.02-.66-12.25.61Z"/>
    <path class="cls-8" d="m1172.79,3416.21c-1.98.96-4.16,2.9-6.26,5.5-2.96,3.68-6.97,13.65-49.7,123.6-25.62,65.79-47.24,121.69-48.04,124.26-1.23,3.92-1.37,5.37-.77,9.65.89,5.94,3.2,9.78,8.37,13.63,3.72,2.75,4.22,2.89,29.75,8.07,27.49,5.52,41.57,7.31,53.51,6.88,8.07-.3,14.55-4.2,18.13-10.83,2.55-4.72,48.45-126.7,49.14-130.55,1.36-7.41-2.26-15.77-8.66-20.13-8.81-6-19.97-4.86-27.17,2.68-3.34,3.46-3.09,2.75-26.22,63.97-16.94,44.89-19.48,51.1-20.87,51.43-2.04.56-26.18-3.93-26.09-4.76.01-.41,18.91-49.32,42.09-108.71,23.1-59.44,42.38-109.57,42.86-111.47.93-4.08.16-10.11-1.82-14.06-1.97-3.88-7.6-8.56-12.18-10.17-4.59-1.61-11.61-1.11-16.08,1.01Z"/>
  </g>
  <text class="cls-4" transform="translate(826.48 1453.94)"><tspan x="0" y="0">DE</tspan><tspan class="cls-6" x="713.37" y="0">V</tspan><tspan x="1070.93" y="0">S</tspan><tspan class="cls-11" x="1364.3" y="0">T</tspan><tspan x="1644.5" y="0">A</tspan><tspan class="cls-7" x="2011.79" y="0">R</tspan><tspan class="cls-1" x="2338.97" y="0">T</tspan></text>
  <text class="cls-5" transform="translate(1192.53 1721.32)"><tspan class="cls-3" x="0" y="0">g</tspan><tspan class="cls-10" x="124.35" y="0">e</tspan><tspan x="251.24" y="0">tting star</tspan><tspan class="cls-16" x="1204.74" y="0">t</tspan><tspan x="1291.98" y="0">ed</tspan><tspan class="cls-13" x="1555.87" y="0"> </tspan><tspan class="cls-15" x="1610.94" y="0">with</tspan><tspan x="-166.23" y="289.2">d</tspan><tspan class="cls-14" x="-30.31" y="289.2">e</tspan><tspan class="cls-12" x="94.77" y="289.2">v</tspan><tspan x="217.08" y="289.2">elopem</tspan><tspan class="cls-17" x="1005.26" y="289.2">n</tspan><tspan x="1138.77" y="289.2">tal scien</tspan><tspan class="cls-9" x="2010.09" y="289.2">c</tspan><tspan x="2123.61" y="289.2">e</tspan></text>
</svg>