<?xml version="1.0" encoding="UTF-8"?>
<!DOCTYPE svg PUBLIC "-//W3C//DTD SVG 1.1//EN" "http://www.w3.org/Graphics/SVG/1.1/DTD/svg11.dtd">
<svg xmlns="http://www.w3.org/2000/svg" version="1.1" width="8424px" height="6991px" style="shape-rendering:geometricPrecision; text-rendering:geometricPrecision; image-rendering:optimizeQuality; fill-rule:evenodd; clip-rule:evenodd" xmlns:xlink="http://www.w3.org/1999/xlink">
<g><path style="opacity:0.988" fill="#fefffe" d="M 2440.5,1033.5 C 2815.81,1021.56 3151.14,1129.73 3446.5,1358C 3709.73,1569.53 3885.23,1838.7 3973,2165.5C 3993,2246.5 4007.33,2328.5 4016,2411.5C 4135.28,2427.88 4223.61,2488.54 4281,2593.5C 4326.06,2687.49 4329.06,2782.82 4290,2879.5C 4242.55,2967.57 4194.71,3055.41 4146.5,3143C 4399.77,3284.09 4653.43,3424.42 4907.5,3564C 5357.33,3811.08 5806.99,4058.41 6256.5,4306C 6258.79,4306.42 6260.79,4305.75 6262.5,4304C 6413.42,4179.02 6587.42,4119.69 6784.5,4126C 6993.85,4138.94 7169.35,4221.77 7311,4374.5C 7446.37,4529.32 7510.37,4710.32 7503,4917.5C 7489.8,5119.03 7410.97,5289.53 7266.5,5429C 7120.91,5561.9 6948.91,5629.73 6750.5,5632.5C 6533.55,5628.91 6350.05,5549.57 6200,5394.5C 6067.67,5249.45 5999.84,5078.12 5996.5,4880.5C 5996.94,4839.14 5999.94,4797.97 6005.5,4757C 6005.24,4755.74 6004.57,4754.74 6003.5,4754C 5302.4,4368.03 4601.23,3982.2 3900,3596.5C 3898.74,3596.76 3897.74,3597.43 3897,3598.5C 3893.67,3603.83 3890.33,3609.17 3887,3614.5C 3842.92,3694.99 3798.59,3775.33 3754,3855.5C 3696.98,3944.8 3615.81,3997.63 3510.5,4014C 3385.55,4026.08 3283.05,3984.24 3203,3888.5C 2974.53,4004.34 2733.03,4060.51 2478.5,4057C 2443.89,4058.54 2409.56,4056.21 2375.5,4050C 2347.97,4044.16 2335.47,4027.33 2338,3999.5C 2338.51,3997.12 2339.18,3994.79 2340,3992.5C 2373.06,3928.7 2407.4,3865.7 2443,3803.5C 2454.2,3791.24 2468.03,3786.74 2484.5,3790C 2512.53,3799.9 2522.03,3819.06 2513,3847.5C 2491.25,3889.51 2469.08,3931.34 2446.5,3973C 2460.88,3973.5 2475.21,3972.83 2489.5,3971C 2556.62,3854.59 2624.12,3738.42 2692,3622.5C 2703.15,3605.66 2718.65,3599.83 2738.5,3605C 2762.81,3614.6 2772.31,3632.1 2767,3657.5C 2708.38,3761.4 2649.21,3865.06 2589.5,3968.5C 2781.11,3958.26 2963.11,3911.1 3135.5,3827C 3210.5,3789.9 3281.83,3747.24 3349.5,3699C 3351.21,3697.62 3352.55,3695.96 3353.5,3694C 3346.89,3663.2 3344.73,3632.04 3347,3600.5C 3351.47,3545.81 3361.47,3492.14 3377,3439.5C 3401.21,3358.42 3431.54,3279.76 3468,3203.5C 3526.54,3080.66 3596.87,2965.66 3679,2858.5C 3713.21,2814.94 3750.37,2773.78 3790.5,2735C 3820.33,2706.49 3853,2681.82 3888.5,2661C 3902.93,2653.2 3917.76,2646.37 3933,2640.5C 3939.96,2537.01 3935.63,2434.01 3920,2331.5C 3874.08,2415.67 3828.41,2500.01 3783,2584.5C 3759.23,2624.1 3728.23,2630.77 3690,2604.5C 3681.69,2561.28 3674.02,2517.95 3667,2474.5C 3663.14,2452.91 3656.47,2432.24 3647,2412.5C 3632.44,2394.38 3619.1,2375.38 3607,2355.5C 3599.06,2336.82 3598.4,2317.82 3605,2298.5C 3606.53,2294.91 3607.86,2291.24 3609,2287.5C 3668.73,2175.7 3729.73,2064.7 3792,1954.5C 3795.47,1950.03 3799.3,1945.87 3803.5,1942C 3783.94,1901.16 3762.78,1861.33 3740,1822.5C 3734.68,1833.8 3729.35,1845.14 3724,1856.5C 3674,1951.17 3624,2045.83 3574,2140.5C 3547.71,2175.6 3515.88,2181.27 3478.5,2157.5C 3446.83,2108.17 3415.67,2058.5 3385,2008.5C 3357.73,1965.2 3325.89,1925.37 3289.5,1889C 3258.9,1864.18 3229.23,1838.18 3200.5,1811C 3161.53,1782.73 3151.36,1746.23 3170,1701.5C 3227.63,1596.41 3285.13,1491.25 3342.5,1386C 3322.85,1371.52 3302.51,1358.02 3281.5,1345.5C 3083.38,1704.07 2885.55,2062.74 2688,2421.5C 2415.38,2917.07 2143.05,3412.74 1871,3908.5C 1869.96,3910.59 1868.46,3912.25 1866.5,3913.5C 1796.08,3880.14 1728.75,3841.98 1664.5,3799C 1662.77,3797.61 1661.44,3795.94 1660.5,3794C 1706.71,3709.76 1752.54,3625.26 1798,3540.5C 2221.17,2770.83 2644.33,2001.17 3067.5,1231.5C 2852.59,1140.18 2628.59,1103.68 2395.5,1122C 2100.88,1147.73 1838.88,1252.4 1609.5,1436C 1386.53,1620.01 1231.36,1850.18 1144,2126.5C 1075.96,2350.29 1063.29,2577.29 1106,2807.5C 1127.64,2921.42 1162.31,3031.08 1210,3136.5C 1263.75,3034.67 1317.75,2933.01 1372,2831.5C 1383.36,2818.6 1397.53,2814.1 1414.5,2818C 1434.67,2824.5 1445,2838.33 1445.5,2859.5C 1445.46,2863.89 1444.96,2868.22 1444,2872.5C 1390.3,2976.23 1336.3,3079.9 1282,3183.5C 1273.5,3199.67 1265.67,3216.17 1258.5,3233C 1264.95,3245.1 1271.78,3256.94 1279,3268.5C 1301.67,3228.5 1324.33,3188.5 1347,3148.5C 1358.86,3131.34 1375.03,3125.51 1395.5,3131C 1417.97,3141.12 1426.81,3158.28 1422,3182.5C 1388.35,3248.5 1353.01,3313.5 1316,3377.5C 1303.2,3394.1 1286.7,3399.27 1266.5,3393C 1258.49,3388.99 1251.65,3383.49 1246,3376.5C 1219.74,3341 1196.74,3303.34 1177,3263.5C 1120.48,3155.46 1076.65,3042.46 1045.5,2924.5C 969.792,2625.28 982.625,2329.95 1084,2038.5C 1208.11,1699.77 1423.61,1436.27 1730.5,1248C 1949.43,1118.31 2186.09,1046.81 2440.5,1033.5 Z M 3145.5,1267.5 C 3166.25,1277.38 3186.59,1288.04 3206.5,1299.5C 3207.58,1300.36 3207.75,1301.36 3207,1302.5C 2748.92,2135.66 2290.59,2968.66 1832,3801.5C 1811.26,3790.55 1791.09,3778.72 1771.5,3766C 2228.91,2932.67 2686.91,2099.84 3145.5,1267.5 Z M 2029.5,1421.5 C 2038.51,1421.33 2047.51,1421.5 2056.5,1422C 2057.14,1424.58 2057.47,1427.25 2057.5,1430C 2052.63,1501.59 2046.8,1573.09 2040,1644.5C 2005.38,1646.86 1972.54,1655.86 1941.5,1671.5C 1901.15,1623.65 1860.98,1575.65 1821,1527.5C 1813.26,1518.26 1806.09,1508.59 1799.5,1498.5C 1830.57,1476.63 1864.24,1459.46 1900.5,1447C 1942.49,1432.63 1985.49,1424.13 2029.5,1421.5 Z M 2143.5,1430.5 C 2231.95,1450.71 2307.95,1492.71 2371.5,1556.5C 2368.4,1559.89 2365.07,1563.06 2361.5,1566C 2306.38,1610.12 2251.54,1654.62 2197,1699.5C 2167.39,1675.44 2133.89,1658.94 2096.5,1650C 2106.16,1649.88 2115.83,1650.04 2125.5,1650.5C 2130.95,1582.86 2136.12,1515.19 2141,1447.5C 2141.31,1441.71 2142.14,1436.04 2143.5,1430.5 Z M 3391.5,1472.5 C 3419.34,1488.61 3445.34,1507.44 3469.5,1529C 3514.27,1571.83 3553.44,1619 3587,1670.5C 3609.17,1704.83 3630.83,1739.5 3652,1774.5C 3655.12,1779.29 3658.62,1783.79 3662.5,1788C 3655.42,1803.67 3647.92,1819.17 3640,1834.5C 3600.52,1910.8 3560.02,1986.47 3518.5,2061.5C 3493.9,2023.29 3469.57,1984.96 3445.5,1946.5C 3418.65,1906.15 3388.31,1868.65 3354.5,1834C 3334.42,1815.91 3313.75,1798.58 3292.5,1782C 3280.53,1771.36 3269.19,1760.03 3258.5,1748C 3254.72,1745.89 3251.22,1743.39 3248,1740.5C 3247.33,1738.83 3247.33,1737.17 3248,1735.5C 3295.72,1647.65 3343.56,1559.99 3391.5,1472.5 Z M 1731.5,1553.5 C 1733.37,1553.86 1734.87,1554.86 1736,1556.5C 1781.98,1612.65 1828.14,1668.65 1874.5,1724.5C 1855.21,1749.18 1840.54,1776.52 1830.5,1806.5C 1821.84,1807.34 1813.18,1807.17 1804.5,1806C 1738.81,1800.38 1673.14,1794.54 1607.5,1788.5C 1624.99,1697.17 1666.32,1618.84 1731.5,1553.5 Z M 2424.5,1624.5 C 2427.39,1625.54 2429.55,1627.54 2431,1630.5C 2477.22,1705.52 2500.56,1787.19 2501,1875.5C 2499.6,1876.12 2498.1,1876.45 2496.5,1876.5C 2423.41,1870.55 2350.41,1863.88 2277.5,1856.5C 2273.82,1826.77 2265.65,1798.43 2253,1771.5C 2251.85,1769.25 2251.52,1766.91 2252,1764.5C 2309.3,1717.45 2366.8,1670.79 2424.5,1624.5 Z M 2038.5,1729.5 C 2090.08,1728.21 2131.91,1747.55 2164,1787.5C 2199.39,1840.8 2201.06,1895.13 2169,1950.5C 2136.29,1996.77 2091.46,2018.27 2034.5,2015C 1980.47,2007.62 1941.64,1979.46 1918,1930.5C 1896.81,1875.38 1904.48,1824.71 1941,1778.5C 1967.56,1750.3 2000.06,1733.97 2038.5,1729.5 Z M 1598.5,1873.5 C 1672.89,1879.23 1747.22,1885.56 1821.5,1892.5C 1825.07,1921.63 1833.07,1949.47 1845.5,1976C 1787.95,2023.35 1729.79,2069.85 1671,2115.5C 1642.86,2072.53 1622.86,2025.86 1611,1975.5C 1603.39,1941.92 1599.22,1907.92 1598.5,1873.5 Z M 2266.5,1941.5 C 2341.56,1947.56 2416.56,1954.23 2491.5,1961.5C 2472.74,2051.37 2431.24,2128.7 2367,2193.5C 2319.35,2136.84 2272.02,2079.84 2225,2022.5C 2224.33,2020.83 2224.33,2019.17 2225,2017.5C 2243.25,1994.68 2257.08,1969.34 2266.5,1941.5 Z M 3099.5,2004.5 C 3107.29,2006.39 3114.29,2009.89 3120.5,2015C 3149.2,2039.03 3176.7,2064.53 3203,2091.5C 3255,2146.82 3304,2204.48 3350,2264.5C 3398.57,2328.41 3447.9,2391.74 3498,2454.5C 3510.16,2470.82 3521.83,2487.48 3533,2504.5C 3537.49,2512.48 3541.16,2520.81 3544,2529.5C 3545.46,2535.1 3545.79,2540.76 3545,2546.5C 3519.68,2592.49 3493.34,2637.82 3466,2682.5C 3462.85,2679.53 3460.19,2676.2 3458,2672.5C 3304.61,2516.45 3149.95,2361.78 2994,2208.5C 2993.6,2207.13 2993.1,2205.79 2992.5,2204.5C 3026.65,2136.85 3062.32,2070.19 3099.5,2004.5 Z M 1896.5,2043.5 C 1908.66,2052.14 1920.99,2060.64 1933.5,2069C 1947.14,2076.32 1961.14,2082.82 1975.5,2088.5C 1976.37,2099.49 1976.21,2110.49 1975,2121.5C 1970.83,2185.9 1966,2250.23 1960.5,2314.5C 1868.08,2295.14 1789.41,2251.64 1724.5,2184C 1781.72,2136.91 1839.05,2090.08 1896.5,2043.5 Z M 3828.5,2061.5 C 3830.64,2063.7 3832.14,2066.37 3833,2069.5C 3842.78,2104.29 3851.78,2139.29 3860,2174.5C 3865.23,2192.53 3871.07,2210.37 3877.5,2228C 3870.02,2244.8 3861.85,2261.3 3853,2277.5C 3819.67,2339.49 3785.84,2401.15 3751.5,2462.5C 3745.15,2426.62 3732.99,2392.96 3715,2361.5C 3706.47,2351.98 3699.14,2341.65 3693,2330.5C 3691.44,2326.44 3690.28,2322.28 3689.5,2318C 3734.7,2231.75 3781.04,2146.25 3828.5,2061.5 Z M 2154.5,2074.5 C 2157.61,2075.09 2160.11,2076.76 2162,2079.5C 2208.09,2134.25 2253.42,2189.59 2298,2245.5C 2298.67,2246.5 2298.67,2247.5 2298,2248.5C 2222.01,2298.16 2138.51,2322.99 2047.5,2323C 2046.43,2322.26 2045.76,2321.26 2045.5,2320C 2050.59,2247.14 2056.09,2174.31 2062,2101.5C 2094.49,2097.84 2125.33,2088.84 2154.5,2074.5 Z M 1504.5,2414.5 C 1651.14,2564.97 1799.47,2714.14 1949.5,2862C 1954.88,2867.04 1960.54,2871.71 1966.5,2876C 1972.83,2880.65 1977.16,2886.65 1979.5,2894C 1944.52,2960.97 1908.52,3027.31 1871.5,3093C 1864.87,3090.52 1858.54,3087.18 1852.5,3083C 1839.25,3073.09 1826.58,3062.42 1814.5,3051C 1753.86,2992.05 1697.69,2929.55 1646,2863.5C 1582.24,2780.99 1518.24,2698.65 1454,2616.5C 1448.07,2607.64 1442.4,2598.64 1437,2589.5C 1432.34,2580.16 1428.67,2570.5 1426,2560.5C 1425.27,2555.97 1425.93,2551.64 1428,2547.5C 1453.72,2503.28 1479.22,2458.95 1504.5,2414.5 Z M 4020.5,2497.5 C 4108.51,2514.35 4172.01,2563.02 4211,2643.5C 4240.66,2712.3 4240.33,2780.97 4210,2849.5C 4034.76,3170.31 3858.76,3490.65 3682,3810.5C 3635.48,3883.71 3568.65,3924.21 3481.5,3932C 3404.01,3934.41 3338.18,3908.24 3284,3853.5C 3282.3,3851.3 3280.8,3848.97 3279.5,3846.5C 3542.4,3688.44 3740.57,3471.44 3874,3195.5C 3978.25,2974.75 4027.09,2742.08 4020.5,2497.5 Z M 2694.5,2674.5 C 2697.32,2674.25 2699.99,2674.75 2702.5,2676C 2817.17,2739 2931.83,2802 3046.5,2865C 3062.75,2874.37 3078.92,2883.87 3095,2893.5C 3095.67,2894.5 3095.67,2895.5 3095,2896.5C 3065.82,2944.5 3035.65,2991.84 3004.5,3038.5C 3001.89,3039.65 2999.23,3039.82 2996.5,3039C 2903.28,3007.59 2810.28,2975.59 2717.5,2943C 2676.1,2927.13 2635.76,2908.8 2596.5,2888C 2591.33,2885.33 2586.83,2881.83 2583,2877.5C 2582.33,2875.5 2582.33,2873.5 2583,2871.5C 2617.1,2805.96 2652.77,2741.3 2690,2677.5C 2691.41,2676.22 2692.91,2675.22 2694.5,2674.5 Z M 3923.5,2735.5 C 3884.65,3007.5 3778.48,3248.83 3605,3459.5C 3550.53,3522.97 3491.7,3582.13 3428.5,3637C 3427.83,3637.67 3427.17,3637.67 3426.5,3637C 3428.46,3633.79 3429.63,3630.29 3430,3626.5C 3433.21,3566.46 3443.87,3507.79 3462,3450.5C 3529.38,3242.44 3631.04,3053.78 3767,2884.5C 3800.06,2844.43 3836.23,2807.27 3875.5,2773C 3889.22,2762.28 3903.22,2751.95 3917.5,2742C 3919.73,2739.94 3921.73,2737.77 3923.5,2735.5 Z M 2460.5,3177.5 C 2659.76,3223.79 2859.43,3268.62 3059.5,3312C 3077.73,3316.08 3096.06,3319.58 3114.5,3322.5C 3091.51,3367.81 3068.01,3412.81 3044,3457.5C 3037.84,3467.01 3029.01,3471.85 3017.5,3472C 2997.52,3473.48 2977.52,3473.82 2957.5,3473C 2865.52,3463.82 2773.52,3454.82 2681.5,3446C 2608.23,3439.44 2535.56,3428.77 2463.5,3414C 2428.03,3407.13 2393.36,3397.47 2359.5,3385C 2354.24,3382.55 2349.57,3379.38 2345.5,3375.5C 2381.07,3310.02 2417.4,3245.02 2454.5,3180.5C 2456.44,3179.2 2458.44,3178.2 2460.5,3177.5 Z M 4105.5,3219.5 C 4801.61,3602.05 5497.61,3984.89 6193.5,4368C 6193.83,4368.33 6194.17,4368.67 6194.5,4369C 6116.23,4456.32 6059.73,4556.49 6025,4669.5C 5330.42,4287.13 4635.92,3904.63 3941.5,3522C 3941.04,3521.59 3940.71,3521.09 3940.5,3520.5C 3950.16,3500.52 3960.32,3480.85 3971,3461.5C 4015.1,3380.3 4059.93,3299.63 4105.5,3219.5 Z M 6725.5,4209.5 C 6934.66,4206.78 7109.83,4281.78 7251,4434.5C 7379.49,4584.66 7434.15,4758.66 7415,4956.5C 7391.35,5134.35 7311.51,5280.85 7175.5,5396C 7012.42,5524.52 6828.09,5571.19 6622.5,5536C 6451.95,5499.87 6314.45,5412.7 6210,5274.5C 6131.2,5164.11 6088.53,5040.78 6082,4904.5C 6078.19,4699.18 6150.35,4526.01 6298.5,4385C 6419.98,4276.96 6562.31,4218.46 6725.5,4209.5 Z M 6735.5,4524.5 C 6863.09,4521.55 6965.59,4570.22 7043,4670.5C 7114.25,4773.57 7129.58,4884.57 7089,5003.5C 7052.61,5097.56 6988.44,5165.4 6896.5,5207C 6790.65,5250.24 6686.98,5245.57 6585.5,5193C 6483.6,5134.38 6422.77,5046.88 6403,4930.5C 6389.11,4805.13 6427.94,4699.63 6519.5,4614C 6581.39,4560.24 6653.39,4530.4 6735.5,4524.5 Z"/></g>
<g><path style="opacity:0.989" fill="#fefffe" d="M 2010.5,1337.5 C 2158.56,1329.69 2288.89,1373.19 2401.5,1468C 2521.54,1575.78 2582.54,1710.78 2584.5,1873C 2583.88,1999.55 2544.38,2112.05 2466,2210.5C 2356.54,2339.47 2216.71,2405.47 2046.5,2408.5C 1882.37,2403.17 1746.54,2339.17 1639,2216.5C 1541.39,2095.28 1501.39,1956.95 1519,1801.5C 1537.37,1678.25 1590.54,1573.08 1678.5,1486C 1771.9,1398.82 1882.56,1349.32 2010.5,1337.5 Z M 2029.5,1421.5 C 1985.49,1424.13 1942.49,1432.63 1900.5,1447C 1864.24,1459.46 1830.57,1476.63 1799.5,1498.5C 1806.09,1508.59 1813.26,1518.26 1821,1527.5C 1860.98,1575.65 1901.15,1623.65 1941.5,1671.5C 1972.54,1655.86 2005.38,1646.86 2040,1644.5C 2046.8,1573.09 2052.63,1501.59 2057.5,1430C 2057.47,1427.25 2057.14,1424.58 2056.5,1422C 2047.51,1421.5 2038.51,1421.33 2029.5,1421.5 Z M 2143.5,1430.5 C 2142.14,1436.04 2141.31,1441.71 2141,1447.5C 2136.12,1515.19 2130.95,1582.86 2125.5,1650.5C 2115.83,1650.04 2106.16,1649.88 2096.5,1650C 2133.89,1658.94 2167.39,1675.44 2197,1699.5C 2251.54,1654.62 2306.38,1610.12 2361.5,1566C 2365.07,1563.06 2368.4,1559.89 2371.5,1556.5C 2307.95,1492.71 2231.95,1450.71 2143.5,1430.5 Z M 1731.5,1553.5 C 1666.32,1618.84 1624.99,1697.17 1607.5,1788.5C 1673.14,1794.54 1738.81,1800.38 1804.5,1806C 1813.18,1807.17 1821.84,1807.34 1830.5,1806.5C 1840.54,1776.52 1855.21,1749.18 1874.5,1724.5C 1828.14,1668.65 1781.98,1612.65 1736,1556.5C 1734.87,1554.86 1733.37,1553.86 1731.5,1553.5 Z M 2424.5,1624.5 C 2366.8,1670.79 2309.3,1717.45 2252,1764.5C 2251.52,1766.91 2251.85,1769.25 2253,1771.5C 2265.65,1798.43 2273.82,1826.77 2277.5,1856.5C 2350.41,1863.88 2423.41,1870.55 2496.5,1876.5C 2498.1,1876.45 2499.6,1876.12 2501,1875.5C 2500.56,1787.19 2477.22,1705.52 2431,1630.5C 2429.55,1627.54 2427.39,1625.54 2424.5,1624.5 Z M 2038.5,1729.5 C 2000.06,1733.97 1967.56,1750.3 1941,1778.5C 1904.48,1824.71 1896.81,1875.38 1918,1930.5C 1941.64,1979.46 1980.47,2007.62 2034.5,2015C 2091.46,2018.27 2136.29,1996.77 2169,1950.5C 2201.06,1895.13 2199.39,1840.8 2164,1787.5C 2131.91,1747.55 2090.08,1728.21 2038.5,1729.5 Z M 1598.5,1873.5 C 1599.22,1907.92 1603.39,1941.92 1611,1975.5C 1622.86,2025.86 1642.86,2072.53 1671,2115.5C 1729.79,2069.85 1787.95,2023.35 1845.5,1976C 1833.07,1949.47 1825.07,1921.63 1821.5,1892.5C 1747.22,1885.56 1672.89,1879.23 1598.5,1873.5 Z M 2266.5,1941.5 C 2257.08,1969.34 2243.25,1994.68 2225,2017.5C 2224.33,2019.17 2224.33,2020.83 2225,2022.5C 2272.02,2079.84 2319.35,2136.84 2367,2193.5C 2431.24,2128.7 2472.74,2051.37 2491.5,1961.5C 2416.56,1954.23 2341.56,1947.56 2266.5,1941.5 Z M 1896.5,2043.5 C 1839.05,2090.08 1781.72,2136.91 1724.5,2184C 1789.41,2251.64 1868.08,2295.14 1960.5,2314.5C 1966,2250.23 1970.83,2185.9 1975,2121.5C 1976.21,2110.49 1976.37,2099.49 1975.5,2088.5C 1961.14,2082.82 1947.14,2076.32 1933.5,2069C 1920.99,2060.64 1908.66,2052.14 1896.5,2043.5 Z M 2154.5,2074.5 C 2125.33,2088.84 2094.49,2097.84 2062,2101.5C 2056.09,2174.31 2050.59,2247.14 2045.5,2320C 2045.76,2321.26 2046.43,2322.26 2047.5,2323C 2138.51,2322.99 2222.01,2298.16 2298,2248.5C 2298.67,2247.5 2298.67,2246.5 2298,2245.5C 2253.42,2189.59 2208.09,2134.25 2162,2079.5C 2160.11,2076.76 2157.61,2075.09 2154.5,2074.5 Z"/></g>
<g><path style="opacity:0.988" fill="#fefffe" d="M 3083.5,1912.5 C 3094.09,1912.28 3104.42,1913.78 3114.5,1917C 3149.37,1931.59 3180.37,1951.92 3207.5,1978C 3252.63,2021.14 3295.8,2066.3 3337,2113.5C 3363.9,2146.28 3390.56,2179.28 3417,2212.5C 3469.28,2280.45 3521.95,2348.12 3575,2415.5C 3589.83,2435.15 3603.16,2455.81 3615,2477.5C 3618.15,2485.95 3621.48,2494.28 3625,2502.5C 3632.63,2527.29 3632.3,2551.95 3624,2576.5C 3618.11,2589.94 3611.45,2602.94 3604,2615.5C 3574.92,2665.33 3545.59,2715 3516,2764.5C 3503.04,2784.23 3484.87,2792.4 3461.5,2789C 3451.06,2786.45 3441.73,2781.78 3433.5,2775C 3427.33,2768.83 3421.17,2762.67 3415,2756.5C 3407.05,2745.55 3398.72,2734.88 3390,2724.5C 3250.22,2581.39 3109.06,2439.56 2966.5,2299C 2950.33,2286.83 2936.17,2272.67 2924,2256.5C 2904.61,2225.87 2902.61,2194.21 2918,2161.5C 2957.75,2087.67 2997.75,2014.01 3038,1940.5C 3048.77,1923.88 3063.94,1914.54 3083.5,1912.5 Z M 3099.5,2004.5 C 3062.32,2070.19 3026.65,2136.85 2992.5,2204.5C 2993.1,2205.79 2993.6,2207.13 2994,2208.5C 3149.95,2361.78 3304.61,2516.45 3458,2672.5C 3460.19,2676.2 3462.85,2679.53 3466,2682.5C 3493.34,2637.82 3519.68,2592.49 3545,2546.5C 3545.79,2540.76 3545.46,2535.1 3544,2529.5C 3541.16,2520.81 3537.49,2512.48 3533,2504.5C 3521.83,2487.48 3510.16,2470.82 3498,2454.5C 3447.9,2391.74 3398.57,2328.41 3350,2264.5C 3304,2204.48 3255,2146.82 3203,2091.5C 3176.7,2064.53 3149.2,2039.03 3120.5,2015C 3114.29,2009.89 3107.29,2006.39 3099.5,2004.5 Z"/></g>
<g><path style="opacity:0.988" fill="#fefffe" d="M 1490.5,2307.5 C 1504.52,2305.83 1517.52,2308.67 1529.5,2316C 1540.59,2323.75 1550.42,2332.92 1559,2343.5C 1566.65,2354.14 1574.65,2364.48 1583,2374.5C 1735.5,2529.66 1889.16,2683.33 2044,2835.5C 2064.11,2863.39 2068.78,2893.72 2058,2926.5C 2017.24,3004.9 1975.24,3082.57 1932,3159.5C 1913.91,3182.19 1890.75,3189.69 1862.5,3182C 1831.32,3170.42 1803.32,3153.76 1778.5,3132C 1729.59,3087.09 1683.43,3039.59 1640,2989.5C 1612.29,2956.12 1584.95,2922.46 1558,2888.5C 1502.48,2816.14 1446.48,2744.14 1390,2672.5C 1372.39,2649.29 1358.39,2623.96 1348,2596.5C 1338.51,2568.43 1339.51,2540.76 1351,2513.5C 1385.99,2450.84 1421.99,2388.84 1459,2327.5C 1467.31,2317.11 1477.81,2310.44 1490.5,2307.5 Z M 1504.5,2414.5 C 1479.22,2458.95 1453.72,2503.28 1428,2547.5C 1425.93,2551.64 1425.27,2555.97 1426,2560.5C 1428.67,2570.5 1432.34,2580.16 1437,2589.5C 1442.4,2598.64 1448.07,2607.64 1454,2616.5C 1518.24,2698.65 1582.24,2780.99 1646,2863.5C 1697.69,2929.55 1753.86,2992.05 1814.5,3051C 1826.58,3062.42 1839.25,3073.09 1852.5,3083C 1858.54,3087.18 1864.87,3090.52 1871.5,3093C 1908.52,3027.31 1944.52,2960.97 1979.5,2894C 1977.16,2886.65 1972.83,2880.65 1966.5,2876C 1960.54,2871.71 1954.88,2867.04 1949.5,2862C 1799.47,2714.14 1651.14,2564.97 1504.5,2414.5 Z"/></g>
<g><path style="opacity:0.989" fill="#fefffe" d="M 2681.5,2590.5 C 2703.44,2587.77 2724.1,2591.6 2743.5,2602C 2876.46,2674.48 3009.12,2747.48 3141.5,2821C 3180.2,2847.76 3191.04,2883.26 3174,2927.5C 3143.13,2979.69 3111.46,3031.36 3079,3082.5C 3053.89,3116.97 3020.39,3130.14 2978.5,3122C 2901.98,3095.61 2825.32,3069.61 2748.5,3044C 2680.82,3021.49 2615.48,2993.49 2552.5,2960C 2515.09,2939.69 2496.93,2908.19 2498,2865.5C 2498.85,2856.24 2500.85,2847.24 2504,2838.5C 2540.57,2769.69 2577.9,2701.35 2616,2633.5C 2632.23,2610.48 2654.07,2596.14 2681.5,2590.5 Z M 2694.5,2674.5 C 2692.91,2675.22 2691.41,2676.22 2690,2677.5C 2652.77,2741.3 2617.1,2805.96 2583,2871.5C 2582.33,2873.5 2582.33,2875.5 2583,2877.5C 2586.83,2881.83 2591.33,2885.33 2596.5,2888C 2635.76,2908.8 2676.1,2927.13 2717.5,2943C 2810.28,2975.59 2903.28,3007.59 2996.5,3039C 2999.23,3039.82 3001.89,3039.65 3004.5,3038.5C 3035.65,2991.84 3065.82,2944.5 3095,2896.5C 3095.67,2895.5 3095.67,2894.5 3095,2893.5C 3078.92,2883.87 3062.75,2874.37 3046.5,2865C 2931.83,2802 2817.17,2739 2702.5,2676C 2699.99,2674.75 2697.32,2674.25 2694.5,2674.5 Z"/></g>
<g><path style="opacity:0.989" fill="#fefffe" d="M 2446.5,3093.5 C 2471.03,3091.27 2494.7,3094.77 2517.5,3104C 2712.78,3149.4 2908.45,3193.07 3104.5,3235C 3119.48,3236.83 3134.48,3238.5 3149.5,3240C 3166.28,3241.37 3181.61,3246.7 3195.5,3256C 3217.37,3276.26 3221.53,3299.76 3208,3326.5C 3178.2,3383.58 3148.53,3440.58 3119,3497.5C 3100.42,3529.89 3072.59,3549.06 3035.5,3555C 3009.93,3558.26 2984.27,3559.26 2958.5,3558C 2844.8,3546.97 2731.14,3535.63 2617.5,3524C 2533.93,3515.22 2451.59,3499.89 2370.5,3478C 2337.2,3469.01 2306.53,3454.68 2278.5,3435C 2254.31,3415.09 2247.15,3390.26 2257,3360.5C 2299.13,3282.07 2342.46,3204.4 2387,3127.5C 2402.59,3108.79 2422.42,3097.45 2446.5,3093.5 Z M 2460.5,3177.5 C 2458.44,3178.2 2456.44,3179.2 2454.5,3180.5C 2417.4,3245.02 2381.07,3310.02 2345.5,3375.5C 2349.57,3379.38 2354.24,3382.55 2359.5,3385C 2393.36,3397.47 2428.03,3407.13 2463.5,3414C 2535.56,3428.77 2608.23,3439.44 2681.5,3446C 2773.52,3454.82 2865.52,3463.82 2957.5,3473C 2977.52,3473.82 2997.52,3473.48 3017.5,3472C 3029.01,3471.85 3037.84,3467.01 3044,3457.5C 3068.01,3412.81 3091.51,3367.81 3114.5,3322.5C 3096.06,3319.58 3077.73,3316.08 3059.5,3312C 2859.43,3268.62 2659.76,3223.79 2460.5,3177.5 Z"/></g>
<g><path style="opacity:0.986" fill="#fefffe" d="M 1744.5,3127.5 C 1762.94,3127.47 1777.11,3135.13 1787,3150.5C 1791.67,3163.17 1791.67,3175.83 1787,3188.5C 1705.84,3339.49 1624.18,3490.15 1542,3640.5C 1528.71,3659.2 1511.21,3664.7 1489.5,3657C 1483.56,3653.39 1477.89,3649.39 1472.5,3645C 1445.27,3621.1 1420.1,3595.27 1397,3567.5C 1386.83,3554.51 1378.16,3540.51 1371,3525.5C 1367.3,3516.72 1366.63,3507.72 1369,3498.5C 1408.81,3421.54 1450.14,3345.54 1493,3270.5C 1506.6,3256.26 1522.77,3252.43 1541.5,3259C 1563.07,3270.31 1570.9,3287.81 1565,3311.5C 1530.14,3377.53 1494.64,3443.19 1458.5,3508.5C 1469.24,3522.41 1480.9,3535.58 1493.5,3548C 1494.17,3548.67 1494.83,3548.67 1495.5,3548C 1569.21,3412.75 1643.04,3277.59 1717,3142.5C 1724.75,3134.71 1733.92,3129.71 1744.5,3127.5 Z"/></g>
<g><path style="opacity:0.986" fill="#fefffe" d="M 2243.5,3435.5 C 2267.4,3433.92 2283.56,3444.25 2292,3466.5C 2293.99,3474.91 2293.66,3483.24 2291,3491.5C 2215.9,3627.37 2140.74,3763.04 2065.5,3898.5C 2080.58,3905.42 2096.25,3910.75 2112.5,3914.5C 2113.77,3914.43 2114.94,3914.1 2116,3913.5C 2152.09,3850.32 2187.43,3786.65 2222,3722.5C 2225.33,3717.17 2228.67,3711.83 2232,3706.5C 2250.59,3689.82 2270.09,3688.65 2290.5,3703C 2303.49,3714.82 2307.99,3729.32 2304,3746.5C 2260.99,3827.87 2216.99,3908.54 2172,3988.5C 2163.7,3999.57 2152.53,4005.24 2138.5,4005.5C 2112.52,4002.5 2087.19,3996.67 2062.5,3988C 2037.68,3979.73 2013.02,3971.06 1988.5,3962C 1965.46,3951.74 1956.96,3934.24 1963,3909.5C 2043.65,3762.19 2125.32,3615.52 2208,3469.5C 2213.49,3459.35 2220.33,3450.18 2228.5,3442C 2233.14,3438.74 2238.14,3436.57 2243.5,3435.5 Z"/></g>
<g><path style="opacity:0.987" fill="#fefffe" d="M 6737.5,4439.5 C 6885.66,4437.85 7006.83,4493.52 7101,4606.5C 7190.55,4725.78 7216.55,4858.12 7179,5003.5C 7134.38,5143.12 7043.88,5239.96 6907.5,5294C 6777.91,5338.37 6653.24,5327.37 6533.5,5261C 6433.45,5200.26 6366.28,5113.76 6332,5001.5C 6296.27,4864.84 6318.27,4738.51 6398,4622.5C 6482.98,4510.08 6596.15,4449.08 6737.5,4439.5 Z M 6735.5,4524.5 C 6653.39,4530.4 6581.39,4560.24 6519.5,4614C 6427.94,4699.63 6389.11,4805.13 6403,4930.5C 6422.77,5046.88 6483.6,5134.38 6585.5,5193C 6686.98,5245.57 6790.65,5250.24 6896.5,5207C 6988.44,5165.4 7052.61,5097.56 7089,5003.5C 7129.58,4884.57 7114.25,4773.57 7043,4670.5C 6965.59,4570.22 6863.09,4521.55 6735.5,4524.5 Z"/></g>
</svg>
